<svg width="1600" height="34" viewBox="0 0 1600 34" fill="none" xmlns="http://www.w3.org/2000/svg">
<mask id="mask0_2003_7" style="mask-type:alpha" maskUnits="userSpaceOnUse" x="0" y="0" width="1600" height="34">
<rect width="1600" height="34" fill="#D9D9D9"/>
</mask>
<g mask="url(#mask0_2003_7)">
<path fill-rule="evenodd" clip-rule="evenodd" d="M1600 -1H0V33.8663C77.7106 8.6837 273.093 -9.50023 566.012 17.0728C804.996 38.7529 1023.25 20.2079 1131.93 10.9728C1138.55 10.4105 1144.76 9.88278 1150.55 9.40072C1260.21 0.261962 1360.91 8.07865 1445.19 14.6211C1506.4 19.3728 1558.96 23.4524 1600 19.8759V-1ZM1600 313.963C1593.08 314.863 1585.32 315.894 1576.79 317.028C1509.95 325.912 1395.81 341.083 1264.75 349H1600V313.963ZM955.961 349C910.707 345.616 866.056 340.404 823.045 332.901C619.545 297.401 307.045 321.401 0.511703 345.573C0.34082 345.586 0.170252 345.599 0 345.612V349H955.961Z" fill="#8FE3FF"/>
</g>
</svg>
