<svg width="48" height="48" viewBox="0 0 48 48" fill="none" xmlns="http://www.w3.org/2000/svg">
<path d="M38.5872 31.0832C38.5038 31.0833 38.4224 31.0573 38.3545 31.0089C38.2866 30.9604 38.2355 30.8919 38.2085 30.813C38.1814 30.7341 38.1797 30.6487 38.2035 30.5688C38.2274 30.4889 38.2757 30.4184 38.3416 30.3672L42.3832 27.2128L39.6128 28.8128C39.5251 28.8636 39.4214 28.8792 39.3226 28.8565C39.2239 28.8338 39.1374 28.7744 39.0807 28.6904C39.0241 28.6064 39.0014 28.504 39.0173 28.4039C39.0332 28.3039 39.0865 28.2135 39.1664 28.1512L42.3432 25.6712L40.0232 27.0096C39.9353 27.0591 39.8321 27.0735 39.734 27.0501C39.636 27.0267 39.5504 26.9671 39.4944 26.8833C39.4384 26.7995 39.4161 26.6976 39.432 26.5981C39.4478 26.4986 39.5007 26.4087 39.58 26.3464L41.888 24.5744L40.1968 25.5512C40.1095 25.6017 40.0063 25.6174 39.9079 25.5951C39.8096 25.5727 39.7233 25.5141 39.6664 25.4308C39.6094 25.3476 39.586 25.2459 39.6009 25.1461C39.6157 25.0464 39.6677 24.9559 39.7464 24.8928L42.4984 22.6736L40.24 23.9752C40.1521 24.0257 40.0484 24.0409 39.9497 24.0178C39.851 23.9947 39.7648 23.9351 39.7085 23.8509C39.6521 23.7667 39.6298 23.6642 39.646 23.5642C39.6623 23.4642 39.7159 23.3741 39.796 23.312L41.4304 22.0576L40.1696 22.7856C40.0826 22.8345 39.9805 22.8491 39.8833 22.8265C39.7862 22.804 39.7009 22.746 39.6443 22.6638C39.5877 22.5817 39.5639 22.4814 39.5774 22.3825C39.591 22.2837 39.641 22.1935 39.7176 22.1296L42.0528 20.228L39.9832 21.4232C39.8974 21.4721 39.7965 21.4876 39.7 21.4666C39.6035 21.4455 39.5182 21.3896 39.4605 21.3094C39.4028 21.2293 39.3768 21.1306 39.3875 21.0324C39.3981 20.9343 39.4448 20.8435 39.5184 20.7776L42.4 18.24L39.6096 19.8512C39.5232 19.8997 39.4218 19.9144 39.3252 19.8924C39.2286 19.8705 39.1436 19.8134 39.0866 19.7324C39.0296 19.6513 39.0048 19.552 39.0168 19.4536C39.0289 19.3553 39.0771 19.2649 39.152 19.2L41.5592 17.1504L39.1592 18.5368C39.0721 18.5859 38.9698 18.6006 38.8724 18.578C38.7751 18.5554 38.6897 18.4972 38.6331 18.4149C38.5765 18.3325 38.5528 18.2319 38.5667 18.1329C38.5805 18.0339 38.6309 17.9437 38.708 17.88L40.452 16.468L38.7032 17.4784C38.6162 17.5288 38.5136 17.5446 38.4155 17.5227C38.3175 17.5008 38.2313 17.4428 38.174 17.3603C38.1168 17.2777 38.0927 17.1766 38.1065 17.0772C38.1204 16.9777 38.1712 16.887 38.2488 16.8232L40.1288 15.2744L38.1488 16.4176C38.0615 16.4688 37.9582 16.4851 37.8594 16.4631C37.7607 16.4412 37.6739 16.3826 37.6167 16.2993C37.5594 16.2159 37.5358 16.1139 37.5506 16.0139C37.5655 15.9138 37.6177 15.8231 37.6968 15.76L39.3248 14.4416L37.552 15.4608C37.4648 15.5101 37.3623 15.525 37.2647 15.5023C37.1672 15.4797 37.0816 15.4213 37.025 15.3387C36.9685 15.2561 36.9449 15.1552 36.9591 15.0561C36.9733 14.9569 37.0241 14.8667 37.1016 14.8032L38.644 13.56L36.9064 14.56C36.8205 14.6091 36.7195 14.6246 36.6228 14.6035C36.5262 14.5824 36.4408 14.5263 36.3831 14.4459C36.3254 14.3656 36.2996 14.2667 36.3105 14.1684C36.3214 14.0701 36.3684 13.9793 36.4424 13.9136L38.7536 11.8832L35.992 13.48C35.9054 13.5295 35.8036 13.5449 35.7063 13.5231C35.609 13.5014 35.5234 13.4441 35.4661 13.3625C35.4089 13.281 35.3841 13.1809 35.3967 13.0821C35.4094 12.9832 35.4585 12.8926 35.5344 12.828L37.5448 11.1304L35.0712 12.56C34.9829 12.6099 34.8791 12.6243 34.7806 12.6006C34.6821 12.5768 34.5963 12.5165 34.5405 12.4319C34.4847 12.3472 34.4632 12.2446 34.4801 12.1447C34.4971 12.0448 34.5514 11.9551 34.632 11.8936L34.952 11.6536L34.4 11.9736C34.3136 12.0235 34.2117 12.0393 34.1143 12.018C34.0169 11.9966 33.9309 11.9397 33.8733 11.8582C33.8157 11.7768 33.7907 11.6768 33.803 11.5778C33.8153 11.4789 33.8642 11.3881 33.94 11.3232L36.1 9.47844L33.2632 11.116C33.1752 11.1689 33.0703 11.186 32.9702 11.1637C32.87 11.1414 32.7822 11.0815 32.725 10.9963C32.6678 10.9112 32.6455 10.8073 32.6627 10.7061C32.6799 10.6049 32.7354 10.5143 32.8176 10.4528L34 9.53684L32.32 10.508C32.2336 10.5588 32.1313 10.5753 32.0333 10.5542C31.9354 10.5332 31.8489 10.4761 31.791 10.3944C31.7331 10.3126 31.7079 10.2121 31.7206 10.1127C31.7332 10.0133 31.7827 9.92231 31.8592 9.85764L34.1896 7.86244L30.8912 9.76004C30.8033 9.80947 30.7001 9.82393 30.602 9.8005C30.504 9.77708 30.4184 9.71751 30.3624 9.6337C30.3064 9.5499 30.2841 9.44804 30.3 9.3485C30.3158 9.24897 30.3687 9.15909 30.448 9.09684L31.796 8.05684L29.704 9.26804C29.6178 9.31756 29.5163 9.33322 29.4192 9.31197C29.3221 9.29072 29.2364 9.23409 29.1788 9.1531C29.1211 9.07212 29.0957 8.97258 29.1075 8.87389C29.1193 8.7752 29.1673 8.68442 29.2424 8.61924L31.944 6.28004L27.76 8.69364C27.6729 8.7427 27.5706 8.75739 27.4732 8.73482C27.3759 8.71224 27.2905 8.65403 27.2339 8.57165C27.1773 8.48927 27.1536 8.38869 27.1675 8.2897C27.1813 8.19072 27.2317 8.10051 27.3088 8.03684L29.808 6.01604L25.7216 8.37444C25.6344 8.42465 25.5314 8.44015 25.4333 8.41784C25.3352 8.39554 25.2491 8.33707 25.1922 8.2541C25.1352 8.17112 25.1117 8.06974 25.1262 7.97017C25.1407 7.87059 25.1921 7.78014 25.2704 7.71684L28.2088 5.34324L23.0048 8.34724C22.9169 8.39881 22.8126 8.41488 22.7132 8.39217C22.6139 8.36946 22.5269 8.30968 22.4702 8.22503C22.4134 8.14039 22.3911 8.03727 22.4078 7.93673C22.4245 7.83618 22.4789 7.7458 22.56 7.68404L25.8272 5.15524L18.6968 9.27204C18.6512 9.30098 18.6003 9.32042 18.5471 9.32917C18.4939 9.33793 18.4394 9.33582 18.387 9.32299C18.3346 9.31015 18.2854 9.28685 18.2422 9.25449C18.199 9.22212 18.1629 9.18136 18.1359 9.13465C18.1089 9.08795 18.0916 9.03626 18.0851 8.98271C18.0786 8.92915 18.083 8.87484 18.098 8.82303C18.1131 8.77121 18.1384 8.72298 18.1726 8.68122C18.2067 8.63946 18.249 8.60505 18.2968 8.58004L30.5488 1.50644C30.6365 1.45731 30.7395 1.44303 30.8373 1.46643C30.9351 1.48983 31.0205 1.54921 31.0765 1.63273C31.1325 1.71626 31.1549 1.8178 31.1394 1.91715C31.1239 2.0165 31.0716 2.10636 30.9928 2.16884L27.7232 4.69924L32.24 2.09284C32.3272 2.04263 32.4301 2.02713 32.5282 2.04944C32.6263 2.07174 32.7125 2.13021 32.7694 2.21318C32.8263 2.29616 32.8499 2.39754 32.8354 2.49711C32.8209 2.59669 32.7694 2.68714 32.6912 2.75044L29.7544 5.12004L33.8192 2.77604C33.9063 2.7261 34.009 2.71074 34.1069 2.73302C34.2048 2.75529 34.2907 2.81357 34.3476 2.89628C34.4046 2.979 34.4283 3.08009 34.4141 3.17949C34.4 3.27889 34.3489 3.36932 34.2712 3.43284L31.7752 5.45284L35.1752 3.48964C35.2614 3.44012 35.3629 3.42446 35.46 3.44571C35.5571 3.46696 35.6428 3.52359 35.7004 3.60458C35.758 3.68556 35.7834 3.7851 35.7716 3.88379C35.7599 3.98248 35.7118 4.07326 35.6368 4.13844L32.9344 6.48004L36.6016 4.36244C36.6894 4.312 36.7932 4.29679 36.8918 4.31987C36.9905 4.34296 37.0767 4.40263 37.1331 4.48682C37.1895 4.57102 37.2118 4.67347 37.1955 4.77348C37.1793 4.87349 37.1257 4.96361 37.0456 5.02564L35.696 6.06564L37.5256 5.00964C37.6118 4.96073 37.7132 4.9456 37.8099 4.96718C37.9067 4.98876 37.992 5.04551 38.0493 5.12643C38.1066 5.20735 38.1318 5.30666 38.12 5.40511C38.1083 5.50356 38.0603 5.59412 37.9856 5.65924L35.656 7.65444L38.6728 5.91364C38.7605 5.86355 38.864 5.84854 38.9624 5.87162C39.0608 5.8947 39.1468 5.95416 39.2031 6.03805C39.2595 6.12195 39.2819 6.22406 39.2661 6.32386C39.2502 6.42366 39.1972 6.51376 39.1176 6.57604L37.9392 7.48964L39.4664 6.60964C39.5526 6.56073 39.654 6.5456 39.7507 6.56718C39.8475 6.58876 39.9328 6.64551 39.9901 6.72643C40.0474 6.80735 40.0726 6.90666 40.0608 7.00511C40.0491 7.10356 40.0011 7.19413 39.9264 7.25924L37.7664 9.09924L40.4368 7.55764C40.525 7.50781 40.6289 7.49334 40.7274 7.51713C40.8259 7.54092 40.9117 7.60122 40.9674 7.68583C41.0232 7.77044 41.0448 7.87306 41.0278 7.97296C41.0108 8.07287 40.9566 8.1626 40.876 8.22404L40.5504 8.46404L41.0304 8.18724C41.1169 8.13779 41.2188 8.12243 41.3161 8.14417C41.4133 8.1659 41.499 8.22317 41.5562 8.30475C41.6135 8.38633 41.6382 8.48635 41.6256 8.58521C41.613 8.68408 41.5639 8.77467 41.488 8.83924L39.4792 10.536L41.856 9.16404C41.9419 9.115 42.0429 9.09952 42.1395 9.12059C42.2362 9.14167 42.3216 9.1978 42.3793 9.27815C42.4369 9.35851 42.4628 9.45738 42.4518 9.55568C42.4409 9.65399 42.3939 9.74475 42.32 9.81044L40.0096 11.84L42.7016 10.2856C42.7889 10.2351 42.892 10.2195 42.9904 10.2418C43.0887 10.2641 43.175 10.3228 43.232 10.406C43.2889 10.4893 43.3123 10.591 43.2975 10.6907C43.2827 10.7905 43.2307 10.881 43.152 10.944L41.608 12.1888L43.3176 11.2024C43.4047 11.1525 43.5074 11.1371 43.6053 11.1594C43.7032 11.1817 43.7891 11.24 43.846 11.3227C43.903 11.4054 43.9267 11.5065 43.9125 11.6059C43.8984 11.7053 43.8473 11.7957 43.7696 11.8592L42.1432 13.1768L43.9032 12.1632C43.99 12.114 44.092 12.099 44.1894 12.1212C44.2867 12.1433 44.3722 12.201 44.4291 12.283C44.486 12.365 44.5102 12.4653 44.497 12.5642C44.4838 12.6631 44.434 12.7535 44.3576 12.8176L42.48 14.3736L44.4728 13.2224C44.56 13.1722 44.6629 13.1567 44.761 13.179C44.8591 13.2013 44.9453 13.2598 45.0022 13.3428C45.0591 13.4258 45.0827 13.5271 45.0682 13.6267C45.0537 13.7263 45.0022 13.8167 44.924 13.88L43.1808 15.2896L44.9648 14.26C45.0512 14.21 45.1533 14.194 45.2509 14.2154C45.3485 14.2368 45.4346 14.294 45.4922 14.3757C45.5497 14.4573 45.5747 14.5576 45.5621 14.6567C45.5494 14.7558 45.5002 14.8466 45.424 14.9112L43.0136 16.96L45.4848 15.5328C45.5707 15.483 45.6721 15.467 45.7692 15.4878C45.8663 15.5086 45.9522 15.5647 46.0102 15.6454C46.0681 15.726 46.094 15.8253 46.0828 15.924C46.0716 16.0227 46.0241 16.1137 45.9496 16.1792L43.0632 18.72L45.9864 17.0328C46.0734 16.9832 46.1759 16.9679 46.2735 16.9902C46.3712 17.0124 46.457 17.0705 46.5139 17.153C46.5709 17.2354 46.5948 17.3362 46.5809 17.4355C46.5671 17.5347 46.5165 17.6251 46.4392 17.6888L44.1056 19.588L46.3248 18.308C46.4126 18.2576 46.5164 18.2424 46.615 18.2655C46.7137 18.2886 46.7999 18.3482 46.8563 18.4324C46.9127 18.5166 46.935 18.6191 46.9187 18.7191C46.9025 18.8191 46.8489 18.9092 46.7688 18.9712L45.1312 20.2272L46.56 19.4048C46.6472 19.3546 46.7501 19.3391 46.8482 19.3614C46.9463 19.3837 47.0325 19.4422 47.0894 19.5252C47.1463 19.6082 47.1699 19.7095 47.1554 19.8091C47.1409 19.9087 47.0894 19.9991 47.0112 20.0624L44.2608 22.2808L46.7784 20.8272C46.8662 20.7778 46.9695 20.7634 47.0675 20.7868C47.1655 20.8102 47.2511 20.8698 47.3071 20.9536C47.3631 21.0374 47.3854 21.1392 47.3696 21.2388C47.3537 21.3383 47.3008 21.4282 47.2216 21.4904L44.9072 23.264L46.8952 22.1168C46.9827 22.0674 47.0857 22.0527 47.1836 22.0757C47.2815 22.0988 47.3671 22.1579 47.4234 22.2412C47.4797 22.3245 47.5025 22.426 47.4874 22.5254C47.4722 22.6248 47.4201 22.7149 47.3416 22.7776L44.16 25.2616L46.9496 23.6512C47.0374 23.5989 47.142 23.5821 47.2417 23.6044C47.3415 23.6268 47.429 23.6864 47.4862 23.7712C47.5433 23.8561 47.5658 23.9595 47.549 24.0604C47.5323 24.1613 47.4775 24.2519 47.396 24.3136L43.36 27.4664L46.88 25.4336C46.9714 25.3858 47.0777 25.3752 47.1768 25.4039C47.2759 25.4327 47.3601 25.4986 47.4117 25.5879C47.4633 25.6772 47.4784 25.783 47.4539 25.8832C47.4293 25.9834 47.367 26.0703 47.28 26.1256L38.7872 31.0288C38.7265 31.0645 38.6575 31.0833 38.5872 31.0832Z" fill="#E23D52"/>
<path d="M32.1856 37.9728C32.0997 37.9726 32.0161 37.9448 31.9472 37.8935C31.8783 37.8421 31.8278 37.77 31.8031 37.6877C31.7785 37.6054 31.7809 37.5174 31.8102 37.4366C31.8394 37.3558 31.8939 37.2866 31.9656 37.2392L35.528 34.8848L31.848 37.0112C31.76 37.061 31.6565 37.0756 31.5582 37.0522C31.4599 37.0287 31.3741 36.9689 31.3181 36.8849C31.2621 36.8008 31.2399 36.6986 31.2562 36.5988C31.2724 36.4991 31.3258 36.4092 31.4056 36.3472L32.2704 35.688L31.1632 36.328C31.0775 36.3768 30.9767 36.3922 30.8804 36.3712C30.784 36.3503 30.6988 36.2945 30.6411 36.2145C30.5833 36.1346 30.5572 36.0361 30.5676 35.938C30.578 35.84 30.6243 35.7492 30.6976 35.6832L33.0752 33.5712L30.1152 35.28C30.0269 35.3309 29.9225 35.3463 29.8233 35.3228C29.7241 35.2994 29.6376 35.239 29.5814 35.154C29.5253 35.0689 29.5037 34.9656 29.5211 34.8652C29.5385 34.7648 29.5936 34.6748 29.6752 34.6136L30.0856 34.3048L29.4864 34.6512C29.4012 34.6987 29.3017 34.7134 29.2064 34.6926C29.1112 34.6719 29.0268 34.617 28.9691 34.5384C28.9115 34.4598 28.8845 34.3629 28.8932 34.2658C28.902 34.1687 28.9459 34.0782 29.0168 34.0112L31.568 31.6704L28.3552 33.52C28.2679 33.5687 28.1656 33.583 28.0684 33.56C27.9711 33.5371 27.886 33.4786 27.8297 33.396C27.7734 33.3135 27.7501 33.2128 27.7643 33.1139C27.7785 33.015 27.8292 32.925 27.9064 32.8616L29.3224 31.732L27.576 32.74C27.4909 32.7857 27.3922 32.799 27.298 32.7776C27.2039 32.7561 27.1207 32.7014 27.0638 32.6234C27.0068 32.5454 26.98 32.4495 26.9883 32.3533C26.9966 32.2571 27.0394 32.1671 27.1088 32.1L29.5384 29.92L26.5048 31.6712C26.4183 31.7205 26.3166 31.7357 26.2195 31.714C26.1224 31.6924 26.0369 31.6353 25.9796 31.5539C25.9224 31.4726 25.8975 31.3728 25.9098 31.2741C25.9222 31.1753 25.9708 31.0848 26.0464 31.02L28.108 29.268L25.568 30.7344C25.4805 30.7845 25.3773 30.7998 25.2791 30.7771C25.1808 30.7544 25.0948 30.6954 25.0382 30.612C24.9815 30.5286 24.9585 30.4268 24.9737 30.3272C24.9888 30.2275 25.0411 30.1372 25.12 30.0744L26.3472 29.1096L24.8224 29.9896C24.7372 30.0391 24.6367 30.0554 24.5402 30.0354C24.4437 30.0153 24.358 29.9604 24.2996 29.8811C24.2411 29.8018 24.2139 29.7037 24.2233 29.6056C24.2327 29.5076 24.2779 29.4164 24.3504 29.3496L26.9528 26.936L23.6672 28.8328C23.5805 28.8818 23.4786 28.8967 23.3815 28.8746C23.2843 28.8525 23.199 28.795 23.142 28.7132C23.0851 28.6315 23.0607 28.5314 23.0737 28.4327C23.0866 28.3339 23.1359 28.2435 23.212 28.1792L25.0744 26.632L22.7864 27.952C22.7005 28.0003 22.5998 28.0152 22.5036 27.9939C22.4074 27.9726 22.3225 27.9165 22.2651 27.8364C22.2077 27.7563 22.1819 27.6578 22.1926 27.5599C22.2033 27.4619 22.2498 27.3714 22.3232 27.3056L24.5992 25.316L21.7784 26.944C21.6932 26.9935 21.5927 27.0098 21.4962 26.9898C21.3997 26.9697 21.314 26.9148 21.2556 26.8355C21.1971 26.7562 21.1699 26.6581 21.1793 26.56C21.1887 26.462 21.2339 26.3708 21.3064 26.304L23.9144 23.8824L20.6192 25.784C20.5335 25.8328 20.4327 25.8482 20.3364 25.8272C20.24 25.8063 20.1548 25.7505 20.0971 25.6705C20.0393 25.5906 20.0132 25.4921 20.0236 25.394C20.034 25.296 20.0803 25.2052 20.1536 25.1392L22.5256 23.04L19.5736 24.744C19.4872 24.7931 19.3857 24.8083 19.2888 24.7866C19.1918 24.765 19.1064 24.7081 19.0491 24.627C18.9919 24.5458 18.9668 24.4463 18.9789 24.3477C18.9909 24.2491 19.0392 24.1585 19.1144 24.0936L21.2168 22.2984L18.624 23.7944C18.5375 23.8429 18.4362 23.8576 18.3396 23.8356C18.243 23.8136 18.1579 23.7566 18.101 23.6755C18.044 23.5945 18.0192 23.4951 18.0312 23.3968C18.0433 23.2984 18.0915 23.2081 18.1664 23.1432L20.1664 21.4544L17.7056 22.872C17.6185 22.9226 17.5156 22.9385 17.4174 22.9166C17.3191 22.8947 17.2327 22.8365 17.1755 22.7537C17.1182 22.6709 17.0943 22.5696 17.1085 22.4699C17.1226 22.3702 17.1739 22.2796 17.252 22.216L18.924 20.856L16.8712 22.0416C16.7828 22.0918 16.6787 22.1065 16.5798 22.0828C16.481 22.059 16.395 21.9985 16.3392 21.9135C16.2834 21.8286 16.262 21.7256 16.2794 21.6255C16.2967 21.5253 16.3516 21.4356 16.4328 21.3744L16.56 21.28L16.2784 21.44C16.1916 21.4917 16.0884 21.5087 15.9897 21.4876C15.8909 21.4664 15.8037 21.4086 15.7458 21.3259C15.6879 21.2431 15.6634 21.1415 15.6773 21.0414C15.6912 20.9413 15.7424 20.8502 15.8208 20.7864L17.7552 19.168L15.3784 20.5408C15.2924 20.5906 15.1911 20.6067 15.094 20.5859C14.9969 20.5651 14.911 20.5089 14.853 20.4283C14.795 20.3476 14.7691 20.2483 14.7803 20.1496C14.7915 20.051 14.839 19.96 14.9136 19.8944L17.2552 17.8256L14.3448 19.5056C14.2568 19.5564 14.1528 19.5719 14.0538 19.5488C13.9548 19.5257 13.8684 19.4658 13.812 19.3813C13.7556 19.2968 13.7334 19.194 13.7501 19.0937C13.7667 18.9935 13.8209 18.9034 13.9016 18.8416L14.636 18.2816L13.676 18.8368C13.589 18.8865 13.4865 18.9017 13.3888 18.8795C13.2911 18.8572 13.2053 18.7991 13.1484 18.7167C13.0915 18.6342 13.0676 18.5334 13.0814 18.4342C13.0953 18.3349 13.1458 18.2445 13.2232 18.1808L14.8912 16.8208L12.8424 18.004C12.7561 18.0537 12.6544 18.0694 12.5571 18.0481C12.4599 18.0268 12.3741 17.97 12.3165 17.8888C12.2588 17.8076 12.2336 17.7078 12.2456 17.609C12.2577 17.5102 12.3061 17.4194 12.3816 17.3544L14.5504 15.4864L11.872 17.0328C11.7852 17.082 11.6831 17.097 11.5858 17.0749C11.4885 17.0527 11.403 16.995 11.346 16.913C11.2891 16.831 11.2649 16.7308 11.2781 16.6318C11.2914 16.5329 11.3411 16.4425 11.4176 16.3784L13.2224 14.8872L10.9592 16.1936C10.8677 16.2414 10.7614 16.2521 10.6623 16.2233C10.5632 16.1946 10.4791 16.1287 10.4274 16.0393C10.3758 15.95 10.3607 15.8442 10.3852 15.744C10.4098 15.6438 10.4721 15.5569 10.5592 15.5016L16.9712 11.8C17.058 11.7508 17.16 11.7358 17.2573 11.7579C17.3546 11.7801 17.4402 11.8378 17.4971 11.9198C17.554 12.0018 17.5782 12.102 17.565 12.201C17.5518 12.2999 17.502 12.3903 17.4256 12.4544L15.6208 13.9456L17.8376 12.6656C17.9238 12.6159 18.0255 12.6002 18.1228 12.6215C18.22 12.6428 18.3059 12.6996 18.3635 12.7808C18.4211 12.862 18.4463 12.9618 18.4343 13.0606C18.4222 13.1594 18.3738 13.2502 18.2984 13.3152L16.1256 15.184L18.804 13.6384C18.8909 13.5896 18.993 13.575 19.0902 13.5975C19.1874 13.6201 19.2726 13.6781 19.3292 13.7602C19.3858 13.8424 19.4097 13.9427 19.3961 14.0415C19.3826 14.1403 19.3326 14.2305 19.256 14.2944L17.588 15.6544L19.6376 14.472C19.7255 14.4212 19.8296 14.4057 19.9285 14.4288C20.0275 14.4519 20.1139 14.5118 20.1703 14.5963C20.2267 14.6808 20.2489 14.7836 20.2322 14.8839C20.2156 14.9841 20.1614 15.0742 20.0808 15.136L19.3464 15.696L20.3064 15.1416C20.3922 15.0927 20.493 15.0773 20.5895 15.0983C20.686 15.1193 20.7713 15.1753 20.829 15.2554C20.8867 15.3356 20.9128 15.4342 20.9021 15.5324C20.8914 15.6306 20.8448 15.7213 20.7712 15.7872L18.4296 17.8544L21.34 16.1744C21.4266 16.1247 21.5287 16.1093 21.6261 16.1311C21.7236 16.1529 21.8093 16.2103 21.8666 16.2921C21.9238 16.3739 21.9484 16.4742 21.9355 16.5732C21.9226 16.6722 21.8731 16.7628 21.7968 16.8272L19.8608 18.448L22.24 17.0744C22.3283 17.0242 22.4325 17.0095 22.5313 17.0332C22.6301 17.057 22.7161 17.1175 22.7719 17.2025C22.8278 17.2874 22.8491 17.3904 22.8318 17.4905C22.8144 17.5907 22.7595 17.6804 22.6784 17.7416L22.5584 17.8304L22.836 17.6704C22.923 17.6207 23.0254 17.6055 23.1231 17.6277C23.2208 17.65 23.3066 17.7081 23.3635 17.7905C23.4205 17.873 23.4444 17.9738 23.4305 18.073C23.4167 18.1723 23.3661 18.2627 23.2888 18.3264L21.6152 19.6864L23.6704 18.5008C23.7568 18.4523 23.8581 18.4376 23.9547 18.4596C24.0514 18.4816 24.1364 18.5386 24.1934 18.6197C24.2503 18.7007 24.2752 18.8001 24.2631 18.8984C24.251 18.9968 24.2029 19.0871 24.128 19.152L22.128 20.8416L24.5904 19.4192C24.6767 19.3693 24.7786 19.3535 24.876 19.3748C24.9735 19.3962 25.0594 19.4532 25.117 19.5346C25.1746 19.616 25.1997 19.716 25.1874 19.815C25.175 19.914 25.1262 20.0048 25.0504 20.0696L22.948 21.8648L25.54 20.3688C25.6257 20.32 25.7264 20.3046 25.8227 20.3256C25.9191 20.3465 26.0043 20.4023 26.0621 20.4823C26.1198 20.5622 26.146 20.6607 26.1355 20.7588C26.1251 20.8568 26.0788 20.9476 26.0056 21.0136L23.6328 23.12L26.5848 21.416C26.67 21.3665 26.7704 21.3502 26.8669 21.3702C26.9634 21.3903 27.0491 21.4452 27.1076 21.5245C27.1661 21.6038 27.1932 21.7019 27.1838 21.8C27.1745 21.898 27.1292 21.9892 27.0568 22.056L24.4496 24.48L27.744 22.5784C27.8298 22.5301 27.9305 22.5152 28.0267 22.5365C28.1229 22.5578 28.2078 22.6139 28.2652 22.694C28.3226 22.7741 28.3484 22.8726 28.3377 22.9705C28.327 23.0685 28.2805 23.159 28.2072 23.2248L25.9312 25.2152L28.752 23.5864C28.8388 23.5354 28.9417 23.519 29.0401 23.5405C29.1385 23.5621 29.2252 23.6199 29.2828 23.7026C29.3404 23.7852 29.3647 23.8866 29.3508 23.9863C29.3369 24.0861 29.2859 24.177 29.208 24.2408L27.3472 25.7856L29.6328 24.4664C29.718 24.4169 29.8184 24.4006 29.9149 24.4206C30.0114 24.4407 30.0971 24.4956 30.1556 24.5749C30.2141 24.6542 30.2412 24.7523 30.2318 24.8504C30.2225 24.9484 30.1772 25.0396 30.1048 25.1064L27.5016 27.52L30.788 25.6224C30.8756 25.5709 30.9795 25.5547 31.0787 25.577C31.1778 25.5994 31.2648 25.6586 31.3218 25.7428C31.3788 25.8269 31.4017 25.9296 31.3858 26.0299C31.3698 26.1303 31.3163 26.2209 31.236 26.2832L30.0096 27.248L31.5336 26.368C31.6199 26.3197 31.721 26.3051 31.8175 26.327C31.914 26.3489 31.9989 26.4057 32.0559 26.4866C32.1129 26.5675 32.1379 26.6666 32.1261 26.7648C32.1143 26.863 32.0665 26.9534 31.992 27.0184L29.9304 28.7712L32.4704 27.3048C32.5554 27.2591 32.6542 27.2458 32.7483 27.2672C32.8424 27.2887 32.9256 27.3434 32.9826 27.4214C33.0395 27.4994 33.0663 27.5953 33.058 27.6915C33.0498 27.7877 33.007 27.8777 32.9376 27.9448L30.508 30.1216L33.5416 28.3712C33.6288 28.3225 33.7311 28.3082 33.8284 28.3312C33.9256 28.3541 34.0107 28.4126 34.067 28.4952C34.1233 28.5777 34.1466 28.6784 34.1324 28.7773C34.1183 28.8762 34.0676 28.9662 33.9904 29.0296L32.5776 30.16L34.32 29.1536C34.4051 29.1055 34.505 29.0903 34.6006 29.1108C34.6963 29.1313 34.7811 29.1862 34.839 29.265C34.8969 29.3438 34.924 29.4411 34.915 29.5385C34.906 29.6359 34.8617 29.7267 34.7904 29.7936L32.24 32.136L35.4504 30.2832C35.5386 30.2323 35.6429 30.2169 35.7421 30.2402C35.8412 30.2636 35.9277 30.3239 35.984 30.4088C36.0403 30.4939 36.0619 30.5973 36.0445 30.6978C36.0272 30.7983 35.972 30.8884 35.8904 30.9496L35.48 31.2576L36.0792 30.912C36.1649 30.8632 36.2656 30.8478 36.3619 30.8688C36.4583 30.8897 36.5435 30.9455 36.6013 31.0255C36.659 31.1054 36.6852 31.2039 36.6747 31.302C36.6643 31.4 36.618 31.4908 36.5448 31.5568L34.168 33.668L37.3264 31.8448C37.4143 31.795 37.5178 31.7804 37.6161 31.8038C37.7144 31.8273 37.8002 31.8871 37.8562 31.9711C37.9123 32.0552 37.9344 32.1574 37.9182 32.2572C37.9019 32.3569 37.8486 32.4468 37.7688 32.5088L36.9016 33.1688L46.6208 27.5576C46.7108 27.5054 46.8177 27.4903 46.9187 27.5156C47.0196 27.541 47.1068 27.6046 47.1615 27.6932C47.2163 27.7817 47.2344 27.8881 47.212 27.9897C47.1896 28.0914 47.1285 28.1803 47.0416 28.2376L43.488 30.5848L46.3456 28.936C46.437 28.8882 46.5433 28.8775 46.6424 28.9063C46.7415 28.935 46.8257 29.0009 46.8773 29.0903C46.9289 29.1796 46.944 29.2854 46.9195 29.3856C46.895 29.4858 46.8326 29.5727 46.7456 29.628L32.3856 37.92C32.3247 37.9548 32.2557 37.973 32.1856 37.9728Z" fill="#E23D52"/>
<path d="M23.52 47.5416C23.4334 47.5416 23.3491 47.5135 23.2799 47.4615C23.2107 47.4095 23.1602 47.3364 23.136 47.2533C23.1118 47.1701 23.1153 47.0814 23.1459 47.0004C23.1765 46.9194 23.2325 46.8505 23.3056 46.804L29.2256 43.0392L21.7376 47.36C21.6471 47.4098 21.5409 47.4226 21.4412 47.3959C21.3415 47.3691 21.256 47.3049 21.2025 47.2165C21.1491 47.1282 21.1319 47.0226 21.1546 46.9218C21.1772 46.8211 21.2379 46.733 21.324 46.676L27.964 42.4936L19.972 47.112C19.8812 47.1644 19.7734 47.179 19.6719 47.1527C19.5704 47.1265 19.4833 47.0614 19.4293 46.9715C19.3753 46.8817 19.3587 46.7742 19.3832 46.6723C19.4076 46.5703 19.4711 46.482 19.56 46.4264L26.0704 42.3672L18.4424 46.7672C18.3527 46.8192 18.2464 46.8344 18.1458 46.8096C18.0452 46.7848 17.9581 46.7219 17.903 46.6342C17.8478 46.5465 17.8288 46.4408 17.8501 46.3393C17.8713 46.2379 17.9311 46.1487 18.0168 46.0904L19.532 45.0568L17.1864 46.4112C17.0973 46.4626 16.9918 46.4777 16.8919 46.4533C16.792 46.429 16.7053 46.3671 16.6498 46.2805C16.5943 46.194 16.5743 46.0893 16.5939 45.9884C16.6135 45.8874 16.6713 45.7979 16.7552 45.7384L18.2928 44.6504L15.9728 45.988C15.8834 46.0401 15.7772 46.0554 15.6767 46.0309C15.5762 46.0064 15.4891 45.9438 15.4337 45.8565C15.3784 45.7691 15.359 45.6636 15.3797 45.5623C15.4004 45.4609 15.4596 45.3715 15.5448 45.3128L15.6648 45.2328L15.0248 45.6048C14.9379 45.6549 14.8355 45.6706 14.7376 45.6487C14.6398 45.6269 14.5537 45.5691 14.4965 45.4868C14.4393 45.4045 14.415 45.3037 14.4285 45.2044C14.4421 45.105 14.4924 45.0144 14.5696 44.9504L17.4736 42.5424L13.4632 44.8568C13.3763 44.9055 13.2744 44.9199 13.1774 44.8975C13.0804 44.875 12.9953 44.8171 12.9387 44.7352C12.8821 44.6533 12.8581 44.5532 12.8713 44.4546C12.8846 44.3559 12.9342 44.2657 13.0104 44.2016L15.44 42.216L12.148 44.116C12.0608 44.1669 11.9577 44.183 11.8592 44.1611C11.7607 44.1391 11.6742 44.0807 11.6169 43.9977C11.5596 43.9146 11.5359 43.8129 11.5504 43.7131C11.5649 43.6132 11.6166 43.5226 11.6952 43.4592L13.8144 41.7384L10.9976 43.36C10.9098 43.4101 10.8063 43.4251 10.7079 43.4021C10.6096 43.379 10.5236 43.3195 10.4672 43.2356C10.4109 43.1517 10.3884 43.0496 10.4043 42.9498C10.4201 42.85 10.4732 42.7599 10.5528 42.6976L11.8712 41.68L10.0992 42.7024C10.0141 42.7487 9.91509 42.7624 9.82059 42.7412C9.72609 42.72 9.64251 42.6652 9.58534 42.5871C9.52817 42.5089 9.50131 42.4126 9.50974 42.3161C9.51817 42.2197 9.56132 42.1295 9.63117 42.0624L12.2272 39.7192L8.84637 41.6712C8.75934 41.7218 8.65643 41.7378 8.55818 41.7158C8.45992 41.6939 8.37354 41.6357 8.31629 41.5529C8.25903 41.4701 8.2351 41.3688 8.24928 41.2691C8.26346 41.1694 8.3147 41.0788 8.39277 41.0152L10.164 39.5704L7.95837 40.8424C7.87325 40.8893 7.77398 40.9035 7.67912 40.8825C7.58426 40.8615 7.50028 40.8067 7.44286 40.7283C7.38545 40.65 7.35853 40.5534 7.36712 40.4566C7.37572 40.3598 7.41924 40.2695 7.48957 40.2024L9.99997 37.9272L6.89517 39.7192C6.80827 39.7687 6.706 39.7838 6.6085 39.7616C6.51101 39.7394 6.42536 39.6815 6.36845 39.5993C6.31153 39.5171 6.28747 39.4165 6.30101 39.3174C6.31454 39.2184 6.36469 39.128 6.44157 39.064L8.15997 37.6528L6.13597 38.8216C6.04907 38.8711 5.94679 38.8862 5.8493 38.864C5.75181 38.8418 5.66616 38.7839 5.60925 38.7017C5.55233 38.6195 5.52827 38.5189 5.54181 38.4198C5.55534 38.3208 5.60549 38.2304 5.68237 38.1664L7.41677 36.7424L5.42637 37.8904C5.34127 37.9367 5.24229 37.9504 5.14779 37.9292C5.05329 37.908 4.9697 37.8532 4.91254 37.7751C4.85537 37.6969 4.82851 37.6006 4.83694 37.5041C4.84537 37.4076 4.88851 37.3175 4.95837 37.2504L7.48397 34.96L4.58237 36.64C4.49608 36.6906 4.39399 36.7069 4.29622 36.6859C4.19845 36.6649 4.1121 36.6081 4.05417 36.5266C3.99625 36.445 3.97096 36.3448 3.98329 36.2455C3.99561 36.1463 4.04466 36.0553 4.12077 35.9904L6.36077 34.0704L3.89997 35.484C3.8121 35.5345 3.70836 35.5497 3.6097 35.5266C3.51104 35.5035 3.42482 35.4438 3.36845 35.3596C3.31209 35.2754 3.28977 35.173 3.30602 35.073C3.32226 34.973 3.37585 34.8829 3.45597 34.8208L4.34317 34.1408L3.46317 34.648C3.37555 34.6995 3.27161 34.7158 3.17246 34.6934C3.07331 34.6711 2.98639 34.6118 2.92935 34.5277C2.87231 34.4435 2.84944 34.3409 2.86538 34.2405C2.88132 34.1401 2.93488 34.0495 3.01517 33.9872L4.47197 32.8352L3.01197 33.68C2.92362 33.7303 2.81946 33.745 2.72065 33.7212C2.62185 33.6974 2.5358 33.6369 2.47999 33.5519C2.42418 33.467 2.40279 33.364 2.42017 33.2639C2.43756 33.1637 2.4924 33.074 2.57357 33.0128L2.95037 32.732L2.68077 32.8872C2.59305 32.9341 2.49101 32.9466 2.39457 32.9223C2.29812 32.898 2.21418 32.8387 2.15912 32.7558C2.10407 32.673 2.08185 32.5726 2.09679 32.4743C2.11174 32.376 2.16279 32.2868 2.23997 32.224L3.49597 31.2504L2.31997 31.9264C2.23382 31.9752 2.13265 31.9902 2.03603 31.9687C1.9394 31.9472 1.8542 31.8906 1.79688 31.8099C1.73956 31.7292 1.7142 31.6301 1.72571 31.5318C1.73721 31.4335 1.78477 31.3429 1.85917 31.2776L4.63037 28.8944L1.87677 30.4856C1.78947 30.5361 1.68631 30.5518 1.58795 30.5294C1.48959 30.5071 1.4033 30.4485 1.34636 30.3652C1.28941 30.282 1.26602 30.1803 1.28085 30.0805C1.29569 29.9808 1.34767 29.8903 1.42637 29.8272L3.59997 28.0896L1.57517 29.2592C1.48769 29.3093 1.3845 29.3246 1.28627 29.3019C1.18803 29.2792 1.10199 29.2202 1.04536 29.1368C0.988739 29.0534 0.965706 28.9517 0.980875 28.852C0.996043 28.7523 1.04829 28.662 1.12717 28.5992L3.37437 26.8256L1.33757 28C1.24873 28.0502 1.14405 28.0646 1.04497 28.0401C0.945892 28.0157 0.859899 27.9543 0.804596 27.8686C0.749293 27.7828 0.728862 27.6791 0.747484 27.5788C0.766107 27.4785 0.822375 27.389 0.904771 27.3288L1.19517 27.12C1.10646 27.1634 1.00483 27.1725 0.909844 27.1454C0.814862 27.1184 0.733245 27.0571 0.680707 26.9735C0.628169 26.8899 0.608423 26.7898 0.625273 26.6925C0.642122 26.5952 0.694375 26.5075 0.771971 26.4464L3.43597 24.3664L1.09197 25.7184C1.00462 25.7674 0.902101 25.7818 0.804654 25.7588C0.707207 25.7358 0.621923 25.6771 0.565646 25.5943C0.50937 25.5115 0.486193 25.4106 0.500695 25.3115C0.515196 25.2125 0.566321 25.1224 0.643971 25.0592L4.20077 22.24L1.05437 24.056C0.966354 24.1051 0.863037 24.1192 0.765085 24.0954C0.667134 24.0717 0.58177 24.0118 0.526069 23.9278C0.470367 23.8438 0.448435 23.7418 0.464659 23.6423C0.480882 23.5429 0.534066 23.4532 0.613571 23.3912L4.08557 20.7648L1.12557 22.4736C1.03517 22.5242 0.92869 22.5377 0.828537 22.5113C0.728384 22.4849 0.642366 22.4207 0.588578 22.3322C0.534791 22.2437 0.517429 22.1378 0.540144 22.0367C0.562859 21.9357 0.623881 21.8474 0.710371 21.7904L1.94157 21.0032L1.23517 21.4104C1.14489 21.4629 1.03766 21.478 0.936382 21.4525C0.835108 21.427 0.747828 21.3629 0.693192 21.2739C0.638556 21.1849 0.620897 21.078 0.643989 20.9762C0.667081 20.8743 0.729092 20.7856 0.816771 20.7288L3.44637 19.0176L1.42077 20.184C1.33054 20.2317 1.2255 20.2431 1.12715 20.2158C1.0288 20.1886 0.944578 20.1248 0.891728 20.0375C0.838877 19.9502 0.821393 19.846 0.842854 19.7462C0.864315 19.6465 0.923098 19.5587 1.00717 19.5008L13.6576 11.4688L1.85037 18.2848C1.76001 18.3314 1.65531 18.3418 1.55754 18.314C1.45978 18.2861 1.37628 18.2221 1.32402 18.1349C1.27177 18.0477 1.25467 17.9439 1.27621 17.8445C1.29774 17.7452 1.3563 17.6578 1.43997 17.6L8.76397 13.0216L2.33437 16.7336C2.24384 16.7827 2.13789 16.7949 2.03856 16.7678C1.93923 16.7407 1.85418 16.6763 1.8011 16.5881C1.74802 16.4999 1.73101 16.3946 1.75359 16.2942C1.77618 16.1937 1.83664 16.1058 1.92237 16.0488L6.90317 12.9384L2.90637 15.2456C2.81567 15.3007 2.70681 15.3175 2.60374 15.2922C2.50067 15.267 2.41183 15.2019 2.35677 15.1112C2.30171 15.0205 2.28494 14.9117 2.31015 14.8086C2.33535 14.7055 2.40047 14.6167 2.49117 14.5616L9.32317 10.2016L3.80317 13.3896C3.71277 13.4402 3.60629 13.4537 3.50614 13.4273C3.40598 13.4009 3.31997 13.3367 3.26618 13.2482C3.21239 13.1597 3.19503 13.0538 3.21774 12.9527C3.24046 12.8517 3.30148 12.7634 3.38797 12.7064L6.90797 10.4664L4.83277 11.6664C4.74308 11.7175 4.63709 11.732 4.53698 11.7068C4.43687 11.6815 4.35039 11.6186 4.29563 11.5311C4.24087 11.4436 4.22206 11.3383 4.24315 11.2372C4.26424 11.1361 4.32358 11.0471 4.40877 10.9888L9.89837 7.27682L6.83437 9.04002C6.74526 9.09762 6.63691 9.11747 6.53317 9.09519C6.42942 9.07291 6.33878 9.01033 6.28117 8.92122C6.22357 8.83211 6.20372 8.72376 6.226 8.62002C6.24828 8.51627 6.31086 8.42562 6.39997 8.36802L9.72717 5.99202C9.66261 5.95966 9.60802 5.91043 9.56918 5.84955C9.53034 5.78867 9.5087 5.71841 9.50657 5.64623C9.50444 5.57405 9.52188 5.50263 9.55706 5.43957C9.59224 5.3765 9.64384 5.32413 9.70637 5.28802L14.9752 2.24802C15.064 2.19781 15.1687 2.18346 15.2678 2.2079C15.3669 2.23234 15.4528 2.29372 15.5082 2.37949C15.5635 2.46525 15.5839 2.56891 15.5653 2.66925C15.5466 2.76959 15.4904 2.85901 15.408 2.91922L13.6 4.21282L19.248 0.952019C19.3377 0.900901 19.4437 0.886443 19.5438 0.911668C19.6439 0.936893 19.7304 0.999847 19.7851 1.08736C19.8399 1.17488 19.8587 1.28018 19.8376 1.38125C19.8165 1.48231 19.7572 1.5713 19.672 1.62962L14.176 5.34482L22.496 0.544819C22.5864 0.494286 22.6929 0.480788 22.793 0.507163C22.8932 0.533539 22.9792 0.597732 23.033 0.686237C23.0868 0.774743 23.1041 0.88066 23.0814 0.981706C23.0587 1.08275 22.9977 1.17105 22.9112 1.22802L19.4016 3.45842L24.4968 0.516819C24.5875 0.46176 24.6963 0.444988 24.7994 0.470193C24.9025 0.495398 24.9913 0.560515 25.0464 0.651219C25.1014 0.741923 25.1182 0.850784 25.093 0.953854C25.0678 1.05692 25.0027 1.14576 24.912 1.20082L18.0744 5.56482L26.5536 0.669619C26.6441 0.620578 26.7501 0.608335 26.8494 0.635436C26.9487 0.662538 27.0338 0.726896 27.0869 0.81512C27.1399 0.903343 27.1569 1.00864 27.1344 1.10909C27.1118 1.20954 27.0513 1.29741 26.9656 1.35442L21.9952 4.45762L28.14 0.911219C28.2313 0.85669 28.3406 0.84068 28.4437 0.86671C28.5469 0.89274 28.6355 0.958678 28.69 1.05002C28.7445 1.14136 28.7605 1.25062 28.7345 1.35377C28.7085 1.45691 28.6425 1.54549 28.5512 1.60002L21.2208 6.17842L29.7224 1.27042C29.8127 1.22148 29.9184 1.20915 30.0175 1.236C30.1167 1.26286 30.2017 1.32682 30.255 1.41465C30.3082 1.50248 30.3257 1.60744 30.3037 1.70778C30.2817 1.80811 30.2219 1.89614 30.1368 1.95362L16.2304 10.7832C16.3148 10.7872 16.3959 10.8178 16.4618 10.8707C16.5278 10.9236 16.5753 10.9961 16.5975 11.0777C16.6197 11.1593 16.6155 11.2458 16.5855 11.3248C16.5555 11.4039 16.5012 11.4714 16.4304 11.5176L13.7904 13.2376L16.7408 11.5344C16.8309 11.4861 16.9362 11.4742 17.0348 11.5012C17.1335 11.5281 17.2181 11.5918 17.2713 11.6791C17.3244 11.7665 17.3421 11.8709 17.3207 11.9709C17.2992 12.0709 17.2403 12.1589 17.156 12.2168L9.78077 16.9368C9.78975 16.9479 9.79829 16.9594 9.80637 16.9712C9.86261 17.056 9.8844 17.1591 9.86731 17.2594C9.85022 17.3598 9.79553 17.4498 9.71437 17.5112L6.23997 20.1368L8.48957 18.8384C8.57695 18.7886 8.6799 18.7735 8.7779 18.7962C8.8759 18.8189 8.96176 18.8776 9.01837 18.9608C9.07498 19.0439 9.09818 19.1454 9.08335 19.2448C9.06853 19.3443 9.01676 19.4346 8.93837 19.4976L5.38077 22.32L8.00957 20.8C8.09723 20.7503 8.20045 20.7354 8.29858 20.7585C8.39671 20.7815 8.48251 20.8408 8.53883 20.9244C8.59514 21.008 8.61781 21.1098 8.60229 21.2094C8.58679 21.309 8.53424 21.3991 8.45517 21.4616L5.79037 23.5416L7.80717 22.3776C7.89585 22.329 7.99967 22.3157 8.09773 22.3405C8.1958 22.3653 8.28082 22.4263 8.33569 22.5113C8.39055 22.5963 8.41118 22.6989 8.39342 22.7985C8.37566 22.8981 8.32083 22.9872 8.23997 23.048L7.85437 23.3248C7.94335 23.3006 8.03797 23.3079 8.1222 23.3454C8.20644 23.3829 8.27512 23.4484 8.31663 23.5308C8.35813 23.6131 8.36991 23.7073 8.34996 23.7973C8.33001 23.8873 8.27957 23.9677 8.20717 24.0248L5.95997 25.804L7.79117 24.7472C7.87848 24.6967 7.98164 24.6811 8.07999 24.7034C8.17835 24.7257 8.26464 24.7844 8.32159 24.8676C8.37853 24.9509 8.40193 25.0526 8.38709 25.1523C8.37225 25.2521 8.32028 25.3426 8.24157 25.4056L6.06477 27.1448L7.93597 26.0648C8.02224 26.0151 8.12395 25.9994 8.2212 26.0207C8.31846 26.042 8.40428 26.0988 8.46188 26.18C8.51948 26.2612 8.54473 26.361 8.53269 26.4598C8.52065 26.5586 8.47219 26.6494 8.39677 26.7144L5.62637 29.096L8.23997 27.5872C8.32785 27.5368 8.43159 27.5216 8.53025 27.5447C8.6289 27.5677 8.71512 27.6274 8.77149 27.7116C8.82786 27.7958 8.85017 27.8983 8.83393 27.9983C8.81768 28.0983 8.76409 28.1884 8.68397 28.2504L7.42077 29.2264L8.52877 28.5864C8.61712 28.5362 8.72128 28.5215 8.82009 28.5453C8.9189 28.5691 9.00495 28.6296 9.06076 28.7145C9.11657 28.7994 9.13795 28.9024 9.12057 29.0026C9.10319 29.1027 9.04834 29.1925 8.96717 29.2536L8.59037 29.5344L8.81757 29.4032C8.90509 29.3521 9.00875 29.3361 9.10762 29.3584C9.20649 29.3808 9.29318 29.4398 9.35018 29.5236C9.40718 29.6075 9.43023 29.7098 9.41467 29.81C9.39911 29.9101 9.34611 30.0006 9.26637 30.0632L7.81197 31.2144L9.23757 30.3912C9.32545 30.3408 9.42919 30.3256 9.52785 30.3487C9.6265 30.3717 9.71272 30.4314 9.76909 30.5156C9.82546 30.5998 9.84777 30.7023 9.83153 30.8023C9.81528 30.9023 9.76169 30.9924 9.68157 31.0544L8.79277 31.736L9.66077 31.2352C9.74693 31.1865 9.8481 31.1714 9.94472 31.1929C10.0413 31.2145 10.1265 31.271 10.1839 31.3517C10.2412 31.4324 10.2665 31.5315 10.255 31.6299C10.2435 31.7282 10.196 31.8187 10.1216 31.884L7.88157 33.808L10.3424 32.3872C10.4275 32.341 10.5265 32.3272 10.621 32.3484C10.7155 32.3696 10.799 32.4244 10.8562 32.5026C10.9134 32.5808 10.9402 32.677 10.9318 32.7735C10.9234 32.87 10.8802 32.9601 10.8104 33.0272L8.28317 35.3128L11.2264 33.6136C11.3134 33.563 11.4163 33.5471 11.5146 33.569C11.6128 33.5909 11.6992 33.6491 11.7565 33.7319C11.8137 33.8147 11.8376 33.9161 11.8235 34.0157C11.8093 34.1154 11.7581 34.2061 11.68 34.2696L9.94557 35.6944L12 34.5136C12.0869 34.4642 12.1892 34.4491 12.2866 34.4713C12.3841 34.4935 12.4698 34.5514 12.5267 34.6336C12.5836 34.7158 12.6077 34.8163 12.5941 34.9154C12.5806 35.0145 12.5305 35.1049 12.4536 35.1688L10.7336 36.5784L12.844 35.36C12.9291 35.3132 13.0284 35.2989 13.1232 35.3199C13.2181 35.3409 13.3021 35.3957 13.3595 35.4741C13.4169 35.5525 13.4438 35.6491 13.4352 35.7459C13.4266 35.8426 13.3831 35.933 13.3128 36L10.8048 38.2728L14.0624 36.392C14.1494 36.3414 14.2523 36.3255 14.3506 36.3474C14.4488 36.3693 14.5352 36.4275 14.5925 36.5103C14.6497 36.5931 14.6736 36.6945 14.6595 36.7941C14.6453 36.8938 14.5941 36.9845 14.516 37.048L12.7448 38.496L15.104 37.136C15.1891 37.0898 15.2881 37.076 15.3826 37.0972C15.4771 37.1184 15.5606 37.1732 15.6178 37.2514C15.675 37.3296 15.7018 37.4258 15.6934 37.5223C15.685 37.6188 15.6418 37.7089 15.572 37.776L12.9768 40.12L16.6312 38.0104C16.7189 37.9603 16.8224 37.9453 16.9208 37.9684C17.0192 37.9915 17.1052 38.0509 17.1615 38.1348C17.2179 38.2187 17.2404 38.3208 17.2245 38.4206C17.2086 38.5204 17.1556 38.6105 17.076 38.6728L15.76 39.6896L17.7736 38.5272C17.8605 38.4784 17.9626 38.4638 18.0598 38.4863C18.157 38.5089 18.2422 38.5669 18.2988 38.649C18.3554 38.7312 18.3793 38.8315 18.3657 38.9303C18.3522 39.0292 18.3022 39.1194 18.2256 39.1832L16.104 40.9064L19.296 39.0664C19.3829 39.017 19.4852 39.0019 19.5826 39.0241C19.6801 39.0463 19.7658 39.1042 19.8227 39.1864C19.8796 39.2686 19.9037 39.3691 19.8901 39.4682C19.8766 39.5673 19.8265 39.6577 19.7496 39.7216L17.3232 41.708L21.1632 39.4888C21.25 39.4387 21.3525 39.4231 21.4503 39.4449C21.5481 39.4668 21.6342 39.5246 21.6914 39.6069C21.7487 39.6892 21.7729 39.79 21.7594 39.8893C21.7459 39.9886 21.6955 40.0792 21.6184 40.1432L18.72 42.5496L23.6552 39.7C23.7447 39.6456 23.852 39.6284 23.954 39.6522C24.056 39.676 24.1446 39.7389 24.2008 39.8273C24.2569 39.9157 24.2761 40.0227 24.2543 40.1251C24.2325 40.2276 24.1713 40.3174 24.084 40.3752L23.9576 40.4616L25.4136 39.6216C25.5027 39.5703 25.6081 39.5552 25.708 39.5795C25.808 39.6038 25.8947 39.6657 25.9502 39.7523C26.0056 39.8389 26.0257 39.9435 26.006 40.0445C25.9864 40.1454 25.9287 40.2349 25.8448 40.2944L24.3104 41.38L28.3664 39.04C28.456 38.988 28.5623 38.9728 28.6629 38.9976C28.7635 39.0224 28.8506 39.0853 28.9058 39.173C28.9609 39.2608 28.9799 39.3665 28.9587 39.4679C28.9375 39.5693 28.8777 39.6586 28.792 39.7168L27.272 40.7568L46.1056 29.8776C46.196 29.8299 46.3013 29.8187 46.3998 29.8462C46.4983 29.8737 46.5825 29.9378 46.6351 30.0255C46.6878 30.1132 46.7048 30.2177 46.6828 30.3175C46.6608 30.4174 46.6014 30.505 46.5168 30.5624L40.0088 34.62L45.628 31.3768C45.7184 31.3271 45.8246 31.3142 45.9244 31.341C46.0241 31.3677 46.1096 31.432 46.163 31.5203C46.2164 31.6087 46.2336 31.7143 46.211 31.815C46.1884 31.9157 46.1277 32.0038 46.0416 32.0608L39.4096 36.2368L44.9704 33.0264C45.061 32.9747 45.1682 32.9603 45.2691 32.9865C45.3701 33.0126 45.4569 33.0772 45.511 33.1664C45.565 33.2557 45.5821 33.3625 45.5585 33.4641C45.5349 33.5657 45.4726 33.6541 45.3848 33.7104L39.4648 37.4752L44.0912 34.804C44.1808 34.752 44.2871 34.7368 44.3877 34.7616C44.4884 34.7864 44.5754 34.8493 44.6306 34.937C44.6857 35.0248 44.7047 35.1305 44.6835 35.2319C44.6623 35.3333 44.6025 35.4226 44.5168 35.4808L35.9528 41.3336L42.1648 37.748C42.2548 37.6984 42.3605 37.6854 42.4599 37.7117C42.5592 37.7379 42.6447 37.8014 42.6985 37.889C42.7524 37.9765 42.7704 38.0815 42.7489 38.182C42.7274 38.2825 42.6681 38.3709 42.5832 38.4288L40.72 39.6456C40.8041 39.6542 40.8833 39.6892 40.9462 39.7456C41.0092 39.802 41.0527 39.8768 41.0704 39.9595C41.0882 40.0421 41.0794 40.1282 41.0451 40.2055C41.0109 40.2828 40.9531 40.3472 40.88 40.3896L29.7336 46.828C29.6435 46.8776 29.5379 46.8906 29.4385 46.8644C29.3391 46.8382 29.2536 46.7747 29.1998 46.6871C29.146 46.5995 29.128 46.4946 29.1494 46.3941C29.1709 46.2935 29.2303 46.2052 29.3152 46.1472L30.0664 45.6552L27.2272 47.2944C27.1376 47.3464 27.0312 47.3616 26.9306 47.3368C26.83 47.312 26.7429 47.2491 26.6878 47.1614C26.6326 47.0737 26.6137 46.968 26.6349 46.8665C26.6561 46.7651 26.7159 46.6759 26.8016 46.6176L35.3616 40.7664L23.72 47.4864C23.6593 47.5221 23.5903 47.5411 23.52 47.5416Z" fill="#E23D52"/>
<path d="M5.72558 9.02643C-17.5736 41.7528 37.8912 66.2848 47.4584 27.7992C51.68 4.36483 20.5928 -9.23118 5.72558 9.02643ZM46.3656 20.6904C50.06 43.12 20.5368 56.3672 6.46958 38.3248C-15.3768 6.48722 37.664 -17.0904 46.3632 20.6904H46.3656Z" fill="#002531" stroke="#002531" stroke-width="2"/>
<path d="M16.4304 12.0888C23.24 18.8 29.8984 25.748 36.7824 32.34C40.3968 32.58 40.6784 24.612 40.476 21.9944C39.3856 10.6088 25.6 4.01684 15.92 9.91124C14.6584 10.6736 15.76 11.4168 16.4304 12.0888ZM17.9032 9.43444C31.0832 3.52484 44.6072 19.4696 37.548 31.7288C30.644 24.776 23.6504 17.8456 16.7272 10.8936C15.9728 10.2272 17.34 9.63844 17.9032 9.43444ZM31.4056 35.7504C24.7488 29.12 18.116 22.4184 11.4672 15.812C10.2504 14.9672 9.32397 16.4792 8.90717 17.3712C7.68644 20.019 7.20662 22.9482 7.5188 25.847C7.83099 28.7458 8.92348 31.5057 10.68 33.8328C16.7072 43.7057 37.2688 39.7536 31.4056 35.7504ZM11.68 33.3048C9.90367 30.8689 8.84843 27.9823 8.63481 24.975C8.4212 21.9678 9.05783 18.9611 10.472 16.2984C16.9104 22.7344 23.3808 29.216 29.832 35.664C30.1728 36.004 31.9504 37.3048 31.388 37.9344C24.6712 41.6304 16.16 39.3808 11.68 33.3048Z" fill="#002531" stroke="#002531"/>
</svg>
