<svg width="208" height="165" viewBox="0 0 208 165" fill="none" xmlns="http://www.w3.org/2000/svg">
<ellipse cx="105.5" cy="86" rx="91.5" ry="71" fill="#45C0E8"/>
<g clip-path="url(#clip0_3_356)">
<path d="M31.11 137.26C23.66 126.52 21.77 115.73 25.32 103.92C24.07 103.5 23.19 103.12 22.28 102.93C12.8 100.89 5.9 92.65 5.93 82.92C5.97 67.62 13.62 49.47 35.31 46.45C36.46 46.29 38.18 44.21 38.23 42.96C39.07 22.8 59.89 4.32001 80.58 0.820007C101.65 -2.73999 117.4 5.28001 126.17 23.84C131.74 23.09 137.01 21.88 142.3 21.79C148.49 21.68 151.55 26.28 153.62 31.39C175.88 29.73 185.65 37.55 185.38 56.94C186.18 57.21 187.05 57.6 187.96 57.81C202.05 60.97 210.51 75.61 206.08 89.34C203.55 97.17 199.34 103.86 192.09 108.16C188.84 110.08 187.69 111.99 188.93 116.11C192.69 128.53 186.87 142.34 175.56 149.44C164.03 156.67 149.57 155.86 139.74 147.43C138.49 146.36 137.23 145.32 135.54 143.91C127.99 156.19 117.55 163.26 103.02 162.69C88.3 162.11 79.2 153.04 72.07 140.59C67.02 146.24 61.04 148.24 54.37 148.83C53.05 148.95 51.81 150.23 50.59 151.05C39.19 158.67 26.88 163.9 13.06 164.81C9.79 165.02 6.43 164.44 3.16 163.92C2.03 163.74 1.05 162.62 0 161.93C0.85 160.83 1.49 159.44 2.58 158.68C9.38 153.91 16.36 149.4 23.09 144.56C25.9 142.54 28.26 139.89 31.1 137.27L31.11 137.26ZM124.33 30.64C123.92 29.81 122.71 28.02 122.1 26.04C119.28 16.9 112.95 11.45 104.43 7.63001C82.11 -2.38999 48.77 14.07 42.78 39.75C41.97 43.23 41.84 46.87 41.37 50.6C40.52 50.75 39.71 51.08 38.92 51.01C23.24 49.66 10.6 64.51 10.47 80.68C10.37 93.39 17.95 100.35 29.84 98.27C29.41 106.13 28.15 114.12 28.77 121.95C29.44 130.47 36.05 136.26 41.96 142.07L40.94 143.17C38.41 141.88 35.89 140.6 34.24 139.76C24.84 147.09 15.98 154.02 6.9 161.1C8.58 161.25 10.48 161.7 12.33 161.53C24.81 160.4 36.61 156.9 46.91 149.69C51.47 146.5 55.71 143.41 61.48 142.87C63.27 142.7 65.09 141.24 66.59 140C72.83 134.81 73.1 134.81 77.28 141.6C77.63 142.17 77.95 142.75 78.3 143.32C91.86 164.66 120.7 163.52 132.51 141.19C133.32 139.66 134.15 138.14 135.29 136.04C137.74 138.71 139.55 140.82 141.51 142.79C149.66 150.97 162.53 152.26 172.75 145.98C183.53 139.36 188.87 126.85 184.66 115.98C182.69 110.89 183.95 108.23 188.18 105.8C194.66 102.06 198.93 96.38 201.38 89.42C205.36 78.14 199.09 65.17 187.67 62.41C181.95 61.03 180.77 58.34 180.79 53.06C180.84 40.34 169.39 32.05 157.11 35.72C153.12 36.91 150.65 36.05 149.24 32.19C147.41 27.2 143.56 24.99 138.65 25.92C134.16 26.77 129.88 28.76 124.32 30.66L124.33 30.64Z" fill="white"/>
<path d="M85.25 10.8899C68.92 15.7599 53.96 22.2699 48.09 41.1699C43.59 28.2799 69.08 7.94988 85.25 10.8899Z" fill="white"/>
<path d="M50.18 141.11C43.21 140.65 37.92 136.91 34.61 130.92C30.09 122.73 28.31 114.05 32.57 105.19C33.06 105.17 33.54 105.15 34.03 105.13C34.03 106.72 34.17 108.32 34.01 109.9C33.3 116.63 33.16 123.42 37.53 128.97C40.19 132.35 43.96 134.87 47.34 137.64C48.36 138.48 49.74 138.88 50.95 139.48C50.69 140.02 50.44 140.56 50.18 141.1V141.11Z" fill="white"/>
<path d="M140.49 134.41C153.17 144.57 165.67 148.24 178.07 133.99C178.4 140.03 173.76 143.76 164.24 146.07C155.62 148.16 143.57 142.76 140.49 134.41Z" fill="white"/>
<path d="M80.36 135.23C88.66 148 98.14 157.14 114.47 152.54C111.32 157.25 105.5 158.16 98.46 155.66C87.77 151.87 79.66 143.45 80.36 135.23Z" fill="white"/>
<path d="M20.01 67.2C15.72 76.76 17.27 85.32 24.73 93.1C20.18 93 17.06 89.49 15.31 83.81C13.3 77.29 14.89 70.47 20.01 67.2Z" fill="white"/>
</g>
<defs>
<clipPath id="clip0_3_356">
<rect width="207.26" height="164.85" fill="white"/>
</clipPath>
</defs>
</svg>
