<svg width="127" height="88" viewBox="0 0 127 88" fill="none" xmlns="http://www.w3.org/2000/svg">
<path d="M56.2765 84.7328C53.4798 85.8202 50.6501 86.5533 47.8172 86.9143C38.6732 87.9745 26.7491 84.3567 21.6182 75.3969C18.4657 69.6783 18.6003 63.2479 20.4641 56.9167C20.0077 56.8546 19.5552 56.7816 19.1095 56.7029C14.4807 55.8643 10.599 54.0788 7.57494 51.3998C4.5139 48.6884 0.746259 43.5948 0.174951 34.7041C-0.733931 20.6399 6.96842 7.16003 19.7954 0.364937L21.1447 2.31378C9.02749 8.73331 1.74871 21.4697 2.60458 34.7581C2.84065 38.4309 4.01202 45.2776 9.19328 49.8651C10.8459 51.3289 14.6852 54.0301 21.1467 54.8125C24.4168 45.57 31.045 36.736 36.1095 30.8746C43.7238 22.4475 51.4781 18.0697 59.8273 17.4772C62.8934 17.1656 64.6034 18.187 65.4999 19.0984C67.0473 20.6716 67.4733 23.1785 66.7004 26.1579C63.5448 38.7129 53.5955 49.196 40.7704 54.1827C37.8951 55.3007 34.8799 56.1402 31.7599 56.6688C28.784 57.1726 25.7929 57.3369 22.9389 57.1585C20.8487 63.8982 21.1239 69.7181 23.7635 74.513C27.2057 80.5265 36.4022 85.9703 47.2999 84.7073C59.8673 83.1094 71.1556 73.7018 77.8874 63.4866C76.8417 63.4141 75.8332 63.2462 74.9286 62.985C72.3229 62.2372 70.5874 60.7839 69.9086 58.789C69.0889 56.3792 70.1198 53.8128 72.971 51.1611C74.9351 49.3364 78.623 47.7532 81.5859 48.415C83.1362 48.7611 84.2912 49.6592 84.9222 51.0161C85.6655 52.6126 85.2458 54.2661 84.7341 55.6753C84.0554 57.4326 83.2324 59.2024 82.2787 60.9547C95.5946 58.5773 106.484 49.0446 109.959 37.1558C109.696 37.2829 109.428 37.4059 109.159 37.5228C105.564 39.0949 102.095 38.9627 99.8775 37.1617C97.8655 35.5296 96.7224 32.085 98.9588 28.3811C100.473 25.8725 103.698 24.1053 106.804 24.0801C108.939 24.062 110.791 24.8849 112.017 26.3964C113.434 28.1416 113.568 30.2643 113.424 32.0655C116.084 29.7775 118.278 26.7934 119.973 23.1381C122.265 18.2021 123.62 12.1871 124.002 5.25287L126.435 5.54512C126.039 12.7275 124.625 18.9865 122.228 24.1434C119.956 29.0373 116.834 32.8272 112.922 35.4562C109.992 49.5848 97.2429 61.1068 81.6137 63.3476C81.3554 63.3858 81.0931 63.4162 80.832 63.4431C78.089 67.8822 74.5712 72.1186 70.6094 75.6814C66.098 79.741 61.2431 82.7954 56.271 84.7287L56.2765 84.7328ZM77.6187 51.0527C76.5771 51.4577 75.5631 52.0604 74.7774 52.789C72.5513 54.8587 71.6937 56.7104 72.2314 58.2965C73.0331 60.6543 76.4073 61.3553 79.2524 61.2975C80.5318 59.1262 81.6001 56.9405 82.4199 54.8048C82.8026 53.7475 83.1059 52.634 82.6885 51.7415C82.3945 51.1091 81.9164 50.7382 81.1923 50.5748C80.2051 50.355 78.8896 50.5554 77.6146 51.0511L77.6187 51.0527ZM104.632 26.7943C103.173 27.3618 101.842 28.3768 101.118 29.5794C99.9897 31.4462 99.7113 34.1741 101.412 35.5569C103.506 37.2565 106.957 35.9459 107.966 35.504C108.911 35.0899 109.817 34.6162 110.686 34.0791C110.785 33.5181 110.868 32.9536 110.934 32.3867C111.113 30.8642 111.178 28.9473 110.107 27.6274C109.388 26.7404 108.352 26.2967 107.03 26.307C106.243 26.3141 105.419 26.4885 104.635 26.7933L104.632 26.7943ZM23.6742 55.0121C25.8944 55.0915 28.3754 54.9482 31.1258 54.4824C47.3127 51.7478 60.6514 40.0962 64.3239 25.4889C64.8915 23.3112 64.6726 21.4518 63.7472 20.5111C63.051 19.8017 61.881 19.5286 60.2726 19.6967L60.2318 19.7001C52.5149 20.2427 45.2607 24.3856 38.0535 32.362C33.9173 37.1499 28.2331 44.5248 24.7509 52.3844C24.3572 53.2749 23.9987 54.1516 23.6756 55.0146L23.6742 55.0121Z" fill="white"/>
</svg>
