<svg width="142" height="127" viewBox="0 0 142 127" fill="none" xmlns="http://www.w3.org/2000/svg">
<g clip-path="url(#clip0_3_54)">
<path d="M75.5868 37.9463C76.1397 29.7826 77.6915 19.7225 84.7684 14.2693C89.4764 10.6436 96.2712 9.58327 103.414 11.3582C108.826 12.6996 113.81 15.3732 117.819 19.0731C129.552 29.9242 131.587 47.5188 133.384 63.0526L133.52 64.2669C134.905 76.1939 136.8 88.212 139.176 99.9986C139.422 101.239 138.622 102.454 137.371 102.702C137.066 102.76 136.784 102.755 136.505 102.702C136.5 102.738 136.495 102.774 136.49 102.81C136.262 103.707 135.54 104.346 134.682 104.508C134.366 104.568 134.037 104.56 133.706 104.482C126.597 102.7 119.391 104.493 111.76 106.39C106.934 107.593 101.949 108.827 96.8851 109.139C96.3528 109.169 95.8091 109.202 95.2633 109.223C91.9477 109.381 88.8059 109.53 86.8202 111.156C86.5583 111.814 86.0047 112.351 85.2678 112.537C85.2113 112.547 85.1661 112.556 85.1096 112.567C85.1096 112.567 85.1096 112.567 85.0983 112.569C84.365 112.836 83.5049 112.741 82.8547 112.209C82.0793 111.571 81.8267 110.543 82.1497 109.651C76.1507 86.1727 73.939 62.0611 75.5868 37.9463Z" fill="white"/>
<path d="M14.7957 49.0348C15.6078 42.1205 16.8318 34.8477 20.2819 28.5234C24.261 21.2219 30.7182 16.5758 37.5652 16.1022C47.2865 15.4253 55.4878 23.1181 59.2975 31.0316C63.2793 39.2985 63.977 48.7585 64.5922 57.0995L68.8139 114.356C68.8958 115.533 68.0844 116.564 66.9549 116.777C66.8645 116.794 66.7855 116.809 66.693 116.815C65.689 116.887 64.8071 116.305 64.422 115.442C64.3295 115.448 64.2278 115.467 64.1332 115.462C50.3938 114.557 36.2955 116.4 23.2608 120.778C23.3299 121.888 22.5997 122.915 21.49 123.171C20.2448 123.453 19.0224 122.678 18.7314 121.446C13.2819 97.5948 11.9589 73.2336 14.7978 49.046L14.7957 49.0348Z" fill="white"/>
<path d="M85.1118 112.578C85.1118 112.578 85.2134 112.559 85.2699 112.548C86.4953 112.223 87.2302 110.973 86.9166 109.746C80.8061 86.3584 78.5352 62.3048 80.1732 38.262C80.6616 31.058 81.9452 22.2416 87.5738 17.9157C91.1701 15.1548 96.5347 14.3879 102.315 15.8234C106.978 16.9786 111.259 19.2703 114.703 22.4569C125.187 32.1402 127.033 48.121 128.818 63.587L128.953 64.8013C130.351 76.8546 132.271 89.0083 134.671 100.919C134.917 102.159 136.099 102.966 137.375 102.725C138.615 102.479 139.426 101.262 139.181 100.021C136.804 88.2346 134.898 76.2186 133.524 64.2895L133.388 63.0752C131.587 47.5188 129.552 29.9242 117.819 19.0731C113.81 15.3732 108.826 12.6996 103.414 11.3582C96.2712 9.58327 89.4651 10.6457 84.7684 14.2693C77.6915 19.7225 76.151 29.7805 75.5868 37.9463C73.9141 62.4869 76.2315 87.0347 82.4676 110.901C82.7705 112.072 83.9371 112.8 85.1118 112.578Z" fill="#002531"/>
<path d="M134.682 104.508C135.54 104.346 136.262 103.707 136.49 102.81C136.797 101.582 136.046 100.332 134.818 100.026C126.594 97.9754 118.493 99.9841 110.649 101.933C106.024 103.086 101.253 104.268 96.6035 104.549C96.0937 104.575 95.5727 104.603 95.0516 104.631C90.6692 104.838 85.6958 105.075 82.5267 108.984C81.7293 109.965 81.8758 111.422 82.8568 112.22C83.8378 113.017 85.2844 112.873 86.0931 111.89C87.9734 109.581 91.5213 109.415 95.2768 109.232C95.8225 109.211 96.3662 109.179 96.8985 109.148C101.963 108.836 106.947 107.603 111.773 106.399C119.404 104.503 126.599 102.712 133.72 104.491C134.05 104.569 134.39 104.575 134.695 104.517L134.682 104.508Z" fill="#002531"/>
<path d="M66.9457 116.791C68.0752 116.577 68.898 115.545 68.8048 114.369L64.583 57.1129C63.9678 48.772 63.2701 39.312 59.2884 31.045C55.4787 23.1315 47.2773 15.4388 37.5561 16.1157C30.7203 16.5871 24.2631 21.2332 20.284 28.5347C16.8339 34.859 15.6099 42.1318 14.7978 49.046C11.9589 73.2336 13.2819 97.5948 18.7314 121.446C19.0111 122.68 20.2469 123.464 21.49 123.171C22.7239 122.892 23.497 121.658 23.2152 120.413C17.8729 97.0675 16.5802 73.2386 19.3661 49.5757C20.1237 43.1163 21.2474 36.3654 24.3226 30.7201C27.5035 24.891 32.6964 21.0451 37.8807 20.6865C45.4204 20.164 52.1192 26.7133 55.1595 33.0291C58.7597 40.5142 59.4265 49.5005 60.0122 57.4376L64.234 114.694C64.3329 115.962 65.425 116.914 66.693 116.815C66.7833 116.798 66.8645 116.794 66.9549 116.777L66.9457 116.791Z" fill="#002531"/>
<path d="M64.7107 115.423C65.716 115.233 66.5029 114.383 66.5821 113.315C66.6703 112.047 65.7037 110.954 64.4355 110.866C49.6418 109.892 34.4409 111.966 20.4854 116.857C19.2905 117.282 18.6608 118.594 19.0739 119.791C19.4983 120.986 20.799 121.617 22.0073 121.202C35.3925 116.512 49.9546 114.523 64.1445 115.459C64.345 115.468 64.5413 115.455 64.722 115.421L64.7107 115.423Z" fill="#002531"/>
<path d="M80.5419 75.1673C80.107 72.8631 79.6587 70.5499 79.2125 68.2478C79.0462 67.3669 79.2431 66.6746 79.6273 66.1693C79.4484 64.7877 79.2716 63.4174 79.104 62.0337C79.0156 61.875 78.9448 61.7479 78.9271 61.7162C78.2265 60.4214 77.5302 59.1491 77.2848 57.6631C77.1198 56.6649 77.1468 55.6305 77.3468 54.6452C74.8202 55.6368 72.9552 51.3334 75.5339 49.6886C85.99 42.9893 95.181 55.6772 98.9735 64.553C103.898 76.081 105.129 88.7389 106.237 101.116C106.452 103.555 103.933 104.709 102.398 103.888C101.62 105.099 99.7864 105.609 98.6632 104.616C97.9463 105.032 97.0541 105.2 95.9205 104.958C95.7743 104.927 95.6782 104.852 95.5411 104.808C95.9045 108.096 91.5149 108.761 90.5889 105.59C90.4868 105.235 90.3847 104.88 90.2847 104.536C90.2487 105.151 90.1881 105.759 90.08 106.365C89.6606 108.666 86.3937 109.95 85.2911 107.269C81.0852 97.0087 81.9784 85.9383 80.5462 75.1899L80.5419 75.1673Z" fill="#002531"/>
<path d="M19.4273 114.846C19.5773 110.993 19.6574 107.141 19.7015 103.284C18.9943 100.096 18.4566 96.8754 18.0884 93.6229C17.1519 93.4955 16.325 92.8328 16.1611 91.5303C15.7711 88.4106 15.5413 85.2723 15.474 82.1268C15.4566 81.2293 15.8916 80.6209 16.4976 80.2374C16.5638 78.9149 16.6187 77.5944 16.7075 76.2676C16.3588 72.871 16.2876 69.4572 16.4642 66.055C15.9849 65.5607 15.5535 65.0104 15.259 64.3174C14.2655 61.9666 14.8415 58.9453 14.9515 56.4915C15.0233 55.0743 16.1964 54.1628 17.475 54.1203C17.7979 53.6616 18.2528 53.2833 18.951 53.1399C29.9802 50.9645 34.967 64.6798 37.1616 73.5181C40.214 85.7854 40.9139 98.7893 42.3899 111.319C42.6147 113.253 41.081 114.362 39.661 114.337C39.0141 115.992 36.7867 116.213 35.5778 115.015C35.4065 115.222 35.2486 115.439 35.0391 115.631C33.9127 116.604 31.8182 116.414 31.1498 114.856C31.1195 114.944 31.1253 115.036 31.095 115.124C30.6461 116.402 29.1623 117.278 27.8836 116.701C27.6525 116.592 27.4624 116.453 27.2406 116.331C27.0324 116.405 26.8333 116.466 26.6251 116.541C26.5369 116.569 26.4896 116.566 26.4218 116.579C25.7811 118.08 23.6886 118.955 22.1475 117.421C22.2479 117.519 22.3369 117.619 22.4373 117.717C20.797 118.261 19.3678 116.39 19.4182 114.86L19.4273 114.846Z" fill="#002531"/>
</g>
<defs>
<clipPath id="clip0_3_54">
<rect width="124.414" height="105" fill="white" transform="matrix(-0.982649 0.185477 0.185477 0.982649 122.255 -6.10352e-05)"/>
</clipPath>
</defs>
</svg>
