<svg width="271" height="267" viewBox="0 0 271 267" fill="none" xmlns="http://www.w3.org/2000/svg">
<path opacity="0.15" d="M164.191 0.793214C173 0.679653 181.535 1.5743 189.697 3.49549C215.932 9.98577 245.001 32.1995 249.893 62.1153C252.68 81.0833 245.696 98.6276 234.058 114.12C235.25 114.761 236.419 115.427 237.563 116.102C249.429 123.169 258.267 132.071 263.827 142.549C269.456 153.153 274.577 171.036 267.003 196.072C255.035 235.681 219.99 264.826 177.728 270.318L176.022 263.571C215.946 258.382 249.062 230.845 260.377 193.424C263.506 183.081 267.327 163.049 257.798 145.104C254.76 139.379 246.98 128.002 230.017 119.204C211.518 141.256 184.204 158.731 164.249 169.639C134.642 184.981 108.816 189.043 85.2473 182.084C76.4955 179.787 72.844 175.22 71.316 171.791C68.6791 165.874 70.0863 158.542 75.2763 151.144C96.8679 119.865 135.01 101.272 175.407 100.751C184.463 100.634 193.618 101.427 202.741 103.183C211.443 104.859 219.837 107.484 227.502 110.91C240.182 94.5267 245.412 78.2395 243.085 62.3393C239.805 42.2623 220.116 17.8331 188.849 10.0965C152.647 1.56359 111.929 15.822 82.91 36.988C85.7112 38.2631 88.3118 39.7621 90.5304 41.4109C96.9267 46.1475 100.204 51.929 100.019 58.1128C99.7942 65.5827 94.3194 71.5793 83.7516 75.9386C76.4735 78.9358 64.704 79.4962 57.2371 74.6286C53.3299 72.0821 51.0776 68.4244 50.7382 64.0439C50.3363 58.8895 53.1913 54.7743 56.0479 51.4254C59.722 47.2912 63.8053 43.2709 68.2302 39.4335C29.1681 32.2742 -10.5828 47.2865 -32.3657 76.4052C-31.512 76.3261 -30.6474 76.2638 -29.7891 76.2187C-18.2852 75.5936 -8.88291 79.5252 -4.63749 86.7587C-0.783621 93.3161 -1.1833 103.964 -11.1429 111.849C-17.8882 117.189 -28.5739 118.732 -37.1389 115.607C-43.0286 113.461 -47.2763 109.292 -49.092 103.875C-51.193 97.6186 -49.3785 91.6437 -47.131 86.8382C-56.7981 90.3941 -65.8998 96.3437 -74.3211 104.652C-85.7019 115.867 -95.6147 131.014 -103.798 149.689L-110.188 146.383C-101.71 127.04 -91.3842 111.283 -79.4895 99.567C-68.2071 88.4466 -55.725 81.2359 -42.2612 78.0313C-19.6724 42.1929 27.2375 23.623 72.5205 33.5374C73.2699 33.6981 74.0227 33.8842 74.7682 34.0789C86.8773 24.6933 100.908 16.6623 115.467 10.9403C132.049 4.41745 148.541 1.01199 164.202 0.810098L164.191 0.793214ZM70.8593 71.456C74.1402 71.4137 77.5487 70.7992 80.4587 69.6038C88.709 66.2024 92.9719 61.9925 93.1247 57.0778C93.3455 49.7697 84.7879 44.3712 76.9049 41.6035C71.1533 46.2584 65.9673 51.1698 61.5164 56.1996C59.3764 58.7133 57.3969 61.4634 57.6267 64.3468C57.7846 66.3882 58.718 67.9002 60.5409 69.0943C63.0295 70.714 66.8533 71.5161 70.869 71.4643L70.8593 71.456ZM-28.3758 110.377C-23.7791 110.318 -19.0769 108.895 -15.8479 106.333C-10.8252 102.36 -7.25361 95.145 -10.5084 89.593C-14.5189 82.7652 -25.3558 82.8197 -28.5841 82.9976C-31.6084 83.1643 -34.5879 83.5348 -37.5299 84.1176C-38.378 85.5589 -39.1884 87.0253 -39.9526 88.5166C-42.0099 92.5193 -44.1603 97.7237 -42.575 102.454C-41.509 105.633 -39.1182 107.918 -35.4704 109.251C-33.3002 110.04 -30.8535 110.409 -28.3843 110.377L-28.3758 110.377ZM223.272 116.056C217.248 113.554 210.278 111.396 202.236 109.848C154.912 100.717 106.247 119.037 81.1232 155.428C77.3224 160.832 76.0118 166.171 77.589 169.709C78.7735 172.376 81.71 174.331 86.3058 175.523L86.4215 175.555C108.2 182.001 132.409 178.07 160.433 163.55C176.732 154.638 199.948 140.205 217.608 122.174C219.607 120.13 221.494 118.088 223.271 116.047L223.272 116.056Z" fill="white"/>
</svg>
