<svg width="421" height="412" viewBox="0 0 421 412" fill="none" xmlns="http://www.w3.org/2000/svg">
<path d="M103.732 193.737C127.629 223.187 151.773 215.881 160.857 208.547C179.603 194.199 164.842 158.455 147.952 145.486C131.063 132.517 123.02 122.447 113.516 123.625C104.011 124.804 73.8598 156.925 103.732 193.737Z" fill="#E1CFBB" stroke="#002531" stroke-width="4" stroke-linejoin="round"/>
<path d="M165.904 113.603C177.558 154.318 211.984 167.372 223.133 163.787C245.853 157.197 243.04 123.83 231.959 103.125C220.878 82.4204 209.616 65.9755 200.307 63.0447C190.998 60.114 151.337 62.7094 165.904 113.603Z" fill="#E1CFBB" stroke="#002531" stroke-width="4" stroke-linejoin="round"/>
<path d="M261.063 140.608C261.375 176.639 284.599 185.822 296.172 185.91C319.567 186.669 330.225 151.521 325.155 131.818C320.085 112.114 309.219 103.229 301.126 98.3671C293.032 93.5049 260.672 95.5689 261.063 140.608Z" fill="#E1CFBB" stroke="#002531" stroke-width="4" stroke-linejoin="round"/>
<path d="M73.8826 281.246C93.2427 305.368 127.416 299.532 136.867 292.912C156.28 279.922 146.303 250.064 131.735 239.701C117.167 229.337 103.625 229.616 94.4703 231.008C85.3153 232.399 49.6825 251.094 73.8826 281.246Z" fill="#E1CFBB" stroke="#002531" stroke-width="4" stroke-linejoin="round"/>
<path d="M172.737 322.246C188.04 364.492 217.285 364.809 230.592 357.779C327.301 312.913 352.001 288.572 347.542 269.993C343.083 251.414 320.282 206.352 236.61 191.841C166.36 179.658 153.609 269.437 172.737 322.246Z" fill="#E1CFBB" stroke="#002531" stroke-width="4" stroke-linejoin="round"/>
</svg>
