<svg width="151" height="358" viewBox="0 0 151 358" fill="none" xmlns="http://www.w3.org/2000/svg">
<path opacity="0.3" d="M13.67 188.217C9.26328 180.588 5.86984 172.706 3.55464 164.647C-3.61322 138.589 1.54875 102.37 25.251 83.4733C40.4336 71.767 59.1527 69.2802 78.3575 71.8552C78.3334 70.503 78.3427 69.1575 78.3717 67.8291C78.7337 54.0227 82.1777 41.9602 88.5982 31.9868C95.0957 21.8915 108.19 8.67996 133.732 3.04391C174.135 -5.8866 216.695 10.4311 242.151 44.61L237.1 49.397C213.051 17.1098 172.837 1.68849 134.662 10.118C124.111 12.4465 104.768 18.909 93.7752 35.996C90.2674 41.4461 84.1476 53.7953 84.7684 72.8942C113.05 78.2471 141.649 93.5269 160.923 105.6C188.783 123.923 204.955 144.464 210.41 168.425C212.687 177.183 210.488 182.601 208.245 185.611C204.372 190.805 197.289 193.162 188.298 192.253C150.455 188.714 115.585 164.536 95.3769 129.553C90.8462 121.711 87.0612 113.337 84.1312 104.521C81.3379 96.111 79.5227 87.5053 78.7633 79.1444C58.2718 76.0951 41.5074 79.4978 28.7756 89.3025C12.8669 101.981 1.18613 131.102 9.72711 162.159C19.9871 197.91 52.3358 226.455 84.989 241.417C84.7314 238.35 84.7673 235.349 85.1205 232.607C86.1244 224.712 89.5648 219.025 95.0495 216.163C101.675 212.706 109.583 214.55 118.553 221.636C124.727 226.519 130.971 236.511 130.376 245.405C130.066 250.058 127.977 253.811 124.322 256.249C120.022 259.121 115.036 258.642 110.718 257.788C105.315 256.605 99.8117 255.009 94.3007 253.026C107.157 290.6 139.691 317.933 175.742 322.694C175.256 321.989 174.779 321.265 174.32 320.538C168.149 310.809 166.981 300.685 171.214 293.445C175.05 286.877 184.533 282.018 196.281 286.85C204.238 290.122 210.809 298.689 212.271 307.688C213.279 313.875 211.721 319.619 207.883 323.852C203.453 328.744 197.354 330.083 192.063 330.472C199.892 337.166 209.533 342.196 220.898 345.479C236.246 349.922 254.306 351.161 274.597 349.167L274.838 356.358C253.82 358.422 235.026 357.12 218.99 352.473C203.773 348.07 191.379 340.708 182 330.531C139.693 328.352 100.555 296.515 87.0597 252.167C86.8333 251.435 86.6275 250.687 86.4328 249.942C72.3246 243.969 58.458 235.657 46.3474 225.756C32.5492 214.482 21.514 201.761 13.6794 188.199L13.67 188.217ZM120.948 235.074C119.306 232.232 117.104 229.56 114.638 227.606C107.636 222.073 101.88 220.413 97.5178 222.683C91.0351 226.064 90.511 236.169 91.9516 244.398C98.8245 247.139 105.645 249.261 112.208 250.684C115.448 251.321 118.814 251.703 121.217 250.093C122.921 248.957 123.783 247.403 123.933 245.229C124.129 242.266 122.959 238.539 120.95 235.061L120.948 235.074ZM203.424 302.602C201.125 298.621 197.584 295.215 193.77 293.652C187.849 291.213 179.809 291.626 176.558 297.18C172.563 304.017 177.91 313.443 179.644 316.172C181.268 318.729 183.048 321.147 184.995 323.428C186.667 323.463 188.342 323.453 190.017 323.39C194.514 323.227 200.106 322.558 203.457 318.862C205.709 316.377 206.533 313.174 205.911 309.341C205.539 307.062 204.664 304.748 203.428 302.609L203.424 302.602ZM85.3204 80.3174C86.0835 86.7954 87.6094 93.9302 90.1917 101.702C105.37 147.447 145.147 180.938 189.175 185.058C195.748 185.73 201.046 184.263 203.361 181.157C205.108 178.82 205.377 175.302 204.17 170.71L204.141 170.594C199.114 148.445 183.847 129.25 157.477 111.906C141.733 102.047 117.791 88.853 93.4268 82.2659C90.6668 81.522 87.9624 80.8742 85.3136 80.3226L85.3204 80.3174Z" fill="white"/>
</svg>
