<svg width="161" height="350" viewBox="0 0 161 350" fill="none" xmlns="http://www.w3.org/2000/svg">
<path opacity="0.3" d="M144.219 152.17C149.172 159.455 153.134 167.068 156.033 174.935C165.091 200.398 162.596 236.898 140.341 257.48C126.057 270.267 107.57 274.118 88.2286 272.957C88.3517 274.304 88.4409 275.647 88.5094 276.974C89.1597 290.769 86.6085 303.052 80.9358 313.469C75.1952 324.013 63.1042 338.148 38.0435 345.64C-1.59649 357.506 -45.2376 344.349 -73.1294 312.127L-68.4426 306.983C-42.0929 337.422 -0.857699 349.856 36.5974 338.653C46.9501 335.558 65.7673 327.696 75.479 309.849C78.5782 304.157 83.777 291.393 81.7588 272.391C53.1608 269.124 23.5195 255.98 3.41301 245.351C-25.7139 229.118 -43.3477 209.817 -50.5434 186.319C-53.455 177.752 -51.6592 172.187 -49.6421 169.021C-46.1607 163.558 -39.2688 160.688 -30.2355 160.936C7.76438 161.693 44.312 183.252 67.0285 216.661C72.1215 224.151 76.5097 232.224 80.0777 240.802C83.4795 248.985 85.9202 257.434 87.29 265.717C107.95 267.257 124.42 262.636 136.399 251.925C151.337 238.115 160.853 208.216 150.06 177.869C137.209 142.966 102.856 116.867 69.1945 104.337C69.676 107.376 69.8601 110.372 69.7086 113.132C69.2858 121.08 66.2712 127.003 61.0109 130.259C54.6562 134.192 46.6346 132.933 37.1694 126.523C30.6548 122.106 23.6955 112.598 23.637 103.684C23.6059 99.0208 25.4144 95.1245 28.8811 92.4252C32.9588 89.2468 37.9661 89.3584 42.3352 89.8939C47.8102 90.6782 53.4159 91.8666 59.0574 93.4408C43.4829 56.9094 9.03486 32.0331 -27.2687 29.9252C-26.7318 30.5936 -26.203 31.2804 -25.692 31.9715C-18.8251 41.2223 -16.9184 51.2335 -20.6102 58.7646C-23.9542 65.5962 -33.0563 71.1361 -45.1268 67.1779C-53.3018 64.4971 -60.4827 56.4349 -62.6004 47.567C-64.0588 41.4703 -62.9249 35.6281 -59.4078 31.1255C-55.3481 25.922 -49.3635 24.1398 -44.1155 23.3639C-52.4137 17.2618 -62.3968 12.9516 -73.9716 10.5098C-89.6039 7.20306 -107.706 7.28956 -127.797 10.765L-128.564 3.6113C-107.753 0.0129022 -88.9146 -0.0651393 -72.5813 3.39416C-57.0824 6.67117 -44.1828 13.1053 -34.0833 22.5681C8.26978 21.6417 49.6342 50.5272 66.3419 93.7671C66.6213 94.4808 66.8813 95.2115 67.1301 95.9407C81.638 100.864 96.0761 108.138 108.88 117.126C123.466 127.358 135.404 139.236 144.211 152.188L144.219 152.17ZM33.7972 113.297C35.6422 116.01 38.0347 118.514 40.637 120.282C48.0249 125.288 53.8878 126.521 58.0716 123.938C64.2892 120.091 64.0718 109.975 62.0322 101.873C54.9771 99.6435 48.0198 98.0269 41.3693 97.0886C38.0921 96.6901 34.7064 96.5559 32.4281 98.338C30.8124 99.5958 30.066 101.208 30.0756 103.388C30.0972 106.357 31.5373 109.989 33.7955 113.31L33.7972 113.297ZM-53.4043 51.9916C-50.8194 55.7931 -47.0389 58.9304 -43.1209 60.2107C-37.0366 62.2089 -29.0484 61.2082 -26.2127 55.4309C-22.7296 48.3195 -28.7527 39.3104 -30.6816 36.7157C-32.4889 34.285 -34.4414 32.0041 -36.5503 29.8716C-38.2203 29.9593 -39.8905 30.0921 -41.5559 30.2773C-46.0294 30.7692 -51.5567 31.8461 -54.6281 35.7778C-56.6918 38.4205 -57.2791 41.6752 -56.3783 45.4527C-55.8397 47.6983 -54.7976 49.9424 -53.4091 51.9845L-53.4043 51.9916ZM80.6645 265.028C79.429 258.623 77.3846 251.619 74.2399 244.057C55.7519 199.547 13.6282 169.06 -30.5838 168.176C-37.1883 167.987 -42.3639 169.838 -44.4456 173.106C-46.0166 175.565 -46.0272 179.092 -44.4867 183.583L-44.4501 183.698C-37.8137 205.419 -21.1815 223.444 6.3877 238.81C22.8115 247.489 47.6562 258.893 72.4372 263.678C75.2443 264.218 77.9889 264.666 80.671 265.022L80.6645 265.028Z" fill="white"/>
</svg>
