<svg width="61" height="53" viewBox="0 0 61 53" fill="none" xmlns="http://www.w3.org/2000/svg">
<path d="M49.909 31.2047C49.909 44.9382 39.8763 51.9053 26.0445 51.9053C12.2128 51.9053 1 40.772 1 27.0385C1 13.305 19.6213 1 33.453 1C47.2847 1 49.909 17.4711 49.909 31.2047Z" fill="white" stroke="#002531" stroke-width="2"/>
<path d="M26.8929 31.7537L25.9666 44.7817C27.2918 44.7817 27.8658 44.2125 28.5541 43.5289L34.7671 37.5911L47.6412 47.0192C50.0023 48.3351 51.6658 47.6421 52.3028 44.8471L60.7533 5.24954L60.7556 5.24721C61.5046 1.75687 59.4934 0.392004 57.193 1.24826L7.52107 20.2654C4.13106 21.5813 4.18239 23.4711 6.94479 24.3274L19.6439 28.2773L49.1414 9.8201C50.5296 8.90086 51.7918 9.40947 50.7536 10.3287L26.8929 31.7537Z" fill="#039BE5"/>
</svg>
