<svg width="520" height="417" viewBox="0 0 520 417" fill="none" xmlns="http://www.w3.org/2000/svg">
<path fill-rule="evenodd" clip-rule="evenodd" d="M510.58 344.675C510.4 345.068 510.221 345.46 510.043 345.85L510.073 345.901C508.543 349.283 506.617 352.467 504.459 355.49C500.971 360.397 496.857 364.892 492.761 369.368C491.833 370.383 490.905 371.396 489.986 372.414C487.419 375.261 484.739 378.022 481.924 380.667C476.376 385.893 470.302 390.663 463.582 394.739C453.74 400.688 443.522 406.675 431.786 410.134C424.123 412.395 416.142 414.265 407.968 415.514C403.534 416.196 398.954 416.512 394.288 416.501C380.289 416.467 366.72 415.911 352.371 413.014C338.43 410.194 324.389 406.57 310.511 402.451C292.305 397.048 274.272 390.237 256.674 382.199C240.419 374.771 224.277 366.8 208.615 357.953C212.603 350.505 215.698 342.534 217.79 334.2C222.962 313.046 220.565 286.426 206.489 266.053C210.821 232.305 197.379 196.364 168.067 163.879C168.04 163.85 168.013 163.82 167.986 163.79C167.914 163.71 167.839 163.626 167.759 163.552C148.491 144.858 132.571 135.675 119.874 131.087C111.829 100.088 91.9396 72.4446 65.0282 55.4719C64.9625 55.437 64.8969 55.4021 64.8416 55.3506C47.9741 45.5029 31.756 41.6261 17.1854 43.8239L17.1993 43.8218C16.9223 43.8636 16.646 43.9075 16.3702 43.9536C16.4637 43.8437 16.5577 43.734 16.6521 43.6247C17.087 43.1226 17.5207 42.6195 17.9544 42.1166C22.7172 36.5927 27.4705 31.0798 33.6974 26.8394C40.2051 22.4051 47.3345 18.472 54.7306 15.0762C58.7121 13.257 62.8974 11.7102 67.1963 10.3473C78.6038 6.74748 90.6747 3.9812 103.019 2.20783C111.304 1.01256 119.836 0.454591 128.532 0.53142C141.569 0.642001 154.615 0.871119 167.974 2.82757C181.332 4.78401 194.874 8.17701 208.169 11.9644C216.683 14.3948 225.138 17.3526 233.317 21.2183C234.16 21.6168 235.006 22.0157 235.855 22.4159C243.357 25.9511 251.059 29.5807 258.245 33.8503C264.192 37.3891 269.462 41.4941 274.916 45.7434L275.136 45.9145C275.774 46.4125 276.413 46.9078 277.05 47.4024C281.687 50.999 286.271 54.555 290.269 58.7669C295.027 63.7861 299.397 69.16 303.589 74.487C304.751 75.9863 305.846 77.525 306.838 79.096C311.216 86.0872 315.29 93.5658 317.741 100.982C319.783 107.159 321.108 113.485 322.186 119.641C322.532 121.648 322.753 123.656 322.906 125.639C323.077 127.896 323.187 130.138 323.297 132.375C323.485 136.194 323.672 140 324.16 143.853C324.98 146.365 325.926 148.874 326.99 151.361C329.09 154.85 331.412 158.283 333.91 161.633C337.473 165.438 341.249 169.07 345.223 172.519C351.154 176.691 357.31 180.503 363.676 183.978C371.568 187.504 379.603 190.57 387.72 193.204C396.909 195.218 406.111 197.578 415.208 200.372C428.203 204.375 440.253 210.223 452.634 216.471C464.292 222.348 475.176 230.564 484.709 239.178C486.157 240.485 487.539 241.864 488.847 243.294C493.202 248.094 497.456 253.089 501.304 258.169C502.534 259.791 503.646 261.469 504.618 263.173C507.662 268.509 510.598 274.018 512.985 279.508C516.229 286.952 517.835 294.857 518.753 302.268C519.721 310.064 519.066 317.831 517.693 325.085C516.389 331.99 513.422 338.47 510.58 344.675ZM7.71865 58.8768C6.77301 61.1761 5.88952 63.5077 5.01125 65.8255C4.78613 66.4196 4.56136 67.0127 4.33597 67.6043C3.67171 69.3664 3.08942 71.1636 2.61896 73.0145C1.1705 78.7803 0.899751 84.9543 0.630714 91.0892C0.572596 92.4145 0.514556 93.7379 0.444747 95.055C0.0526688 102.534 0.907162 110.179 2.68176 117.947C5.43535 130.068 8.25731 141.78 13.4085 153.753C21.9277 173.57 33.1547 193.175 46.2115 211.746C51.5383 219.313 57.1967 226.749 63.1488 234.014C72.0316 244.834 81.0769 255.627 90.7897 265.949C103.833 279.819 117.984 292.945 133.004 305.179C151.845 320.509 171.336 335.228 192.091 348.157C194.147 349.438 196.215 350.701 198.293 351.947C201.972 345.151 204.817 337.872 206.724 330.264C210.408 315.179 209.713 296.882 202.584 281.291C196.459 294.263 183.532 301.982 168.036 301.405L167.819 301.393C150.333 300.039 136.552 286.303 135.696 269.421C134.97 259.74 139.842 250.843 148.959 245.073C158.165 238.901 169.934 238.86 182.978 244.95C183.106 245.005 183.237 245.075 183.368 245.145C188.023 247.717 192.17 250.679 195.856 253.979C196.331 226.628 184.037 197.898 160.212 171.446C146.756 158.408 134.528 149.52 122.497 144.19C123.926 157.682 118.486 169.28 106.314 178.649C106.193 178.742 106.073 178.835 105.948 178.914C98.1359 183.859 87.5337 183.515 78.2825 178.019C69.8193 173.003 64.5121 164.805 64.1013 156.197C63.6228 148.735 66.0426 142.017 71.1059 136.769C77.7143 129.913 88.6016 126.028 99.5218 126.623C99.5511 126.626 99.5839 126.629 99.6167 126.632C99.6495 126.634 99.6824 126.637 99.7117 126.64C102.05 126.84 104.602 127.158 107.39 127.679C99.4237 102.124 82.4064 79.5179 59.9047 65.2883C46.8558 57.6898 27.5464 50.3629 9.48109 58.4391C8.91511 58.6928 8.32005 58.8356 7.71865 58.8768ZM94.5458 170.544C90.9412 171.087 86.8756 170.251 83.2194 168.082C78.5783 165.329 75.6966 161.085 75.4773 156.723C75.1854 152.298 76.5795 148.515 79.6044 145.383C84.1607 140.645 92.1622 137.853 99.9777 138.274C103.504 138.594 106.996 139.188 110.481 140.053C110.714 141.258 110.919 142.468 111.111 143.68C112.393 153.352 108.466 161.658 99.0851 168.947C97.7255 169.78 96.179 170.312 94.5355 170.56L94.5458 170.544ZM167.415 289.779C154.643 288.746 147.532 279.056 147.096 269.989C147.09 269.961 147.089 269.933 147.089 269.904C147.089 269.897 147.088 269.89 147.088 269.883C147.088 269.877 147.088 269.87 147.088 269.863C147.086 269.842 147.084 269.82 147.079 269.797C146.451 261.894 152.948 256.894 155.771 255.122C161.919 250.996 169.703 251.108 178.981 255.403C185.18 258.863 190.283 263.236 194.432 268.23C194.264 269.137 194.079 270.032 193.88 270.929C190.62 282.841 180.245 290.221 167.405 289.796L167.415 289.779Z" fill="#41CAF7"/>
</svg>
