<svg width="56" height="53" viewBox="0 0 56 53" fill="none" xmlns="http://www.w3.org/2000/svg">
<path d="M49.909 31.2047C49.909 44.9382 39.8763 51.9053 26.0445 51.9053C12.2128 51.9053 1 40.772 1 27.0385C1 13.305 19.6213 1 33.453 1C47.2847 1 49.909 17.4711 49.909 31.2047Z" fill="white" stroke="#002531" stroke-width="2"/>
<path d="M36 12C24.9547 12 16 20.9547 16 32C16 43.0453 24.9547 52 36 52C47.0453 52 56 43.0453 56 32C56 20.9547 47.0453 12 36 12Z" fill="#039BE5"/>
<path d="M38.188 30.19L46.7498 20.2377H44.7209L37.2867 28.8792L31.3491 20.2377H24.5007L33.4796 33.3051L24.5007 43.7417H26.5297L34.3804 34.616L40.651 43.7417H47.4994L38.1875 30.19H38.188ZM27.2608 21.7651H30.3771L44.7219 42.2838H41.6055L27.2608 21.7651Z" fill="white"/>
</svg>
